<?xml version="1.0" standalone="no"?>
<!DOCTYPE svg PUBLIC "-//W3C//DTD SVG 1.1//EN" "http://www.w3.org/Graphics/SVG/1.1/DTD/svg11.dtd" >
<svg xmlns="http://www.w3.org/2000/svg" xmlns:xlink="http://www.w3.org/1999/xlink" version="1.1">
<metadata></metadata>
<defs>
<font id="tp_heroblack" horiz-adv-x="1435" >
<font-face units-per-em="2048" ascent="1638" descent="-410" />
<missing-glyph horiz-adv-x="552" />
<glyph unicode="&#xfb01;" horiz-adv-x="1628" d="M51 799v356h156v74q0 82 30.5 159t89.5 141.5t157 104t221 39.5q120 0 243 -35v-358q-79 23 -157 23q-156 0 -156 -103v-45h285v-356h-279v-799h-438v799h-152zM1075 1460q0 94 66.5 160t161.5 66q94 0 160.5 -66t66.5 -160t-66.5 -159.5t-160.5 -65.5q-95 0 -161.5 65.5 t-66.5 159.5zM1083 0v1155h439v-1155h-439z" />
<glyph unicode="&#xfb02;" horiz-adv-x="1638" d="M51 799v356h156v74q0 82 30.5 159t89.5 141.5t157 104t221 39.5q120 0 243 -35v-358q-79 23 -157 23q-156 0 -156 -103v-45h285v-356h-279v-799h-438v799h-152zM1094 0v1651h438v-1651h-438z" />
<glyph horiz-adv-x="0" />
<glyph horiz-adv-x="682" />
<glyph unicode="&#xd;" horiz-adv-x="0" />
<glyph unicode=" "  horiz-adv-x="552" />
<glyph unicode="&#x09;" horiz-adv-x="552" />
<glyph unicode="&#xa0;" horiz-adv-x="552" />
<glyph unicode="!" horiz-adv-x="671" d="M106 213q0 95 67.5 162t162.5 67t162 -67t67 -162t-67 -162t-162 -67t-162.5 67t-67.5 162zM106 1530h459l-84 -955h-295z" />
<glyph unicode="&#x22;" horiz-adv-x="991" d="M82 1530h364l-79 -668h-213zM545 1530h364l-80 -668h-213z" />
<glyph unicode="#" horiz-adv-x="1275" d="M41 457v207h248l33 210h-209v207h235l66 449h229l-68 -449h205l66 449h231l-65 -449h223v-207h-254l-31 -210h213v-207h-243l-66 -457h-227l65 457h-207l-63 -457h-232l68 457h-217zM518 664h205l31 210h-205z" />
<glyph unicode="$" horiz-adv-x="1241" d="M113 1067q0 153 87.5 273t258.5 169v158h344v-137q159 -20 282 -90v-414q-69 52 -171.5 84.5t-198.5 32.5q-70 0 -111 -26t-41 -66q0 -28 33.5 -50t87 -40.5t118 -40.5t129 -56.5t118 -81t87 -122.5t33.5 -173q0 -176 -94 -302t-272 -175v-157h-344v139q-188 21 -336 110 v441q68 -73 187.5 -119.5t234.5 -46.5q80 0 127 29.5t47 74.5q0 33 -33.5 58.5t-87 45.5t-118 42t-129 57t-118 81.5t-87 124t-33.5 177.5z" />
<glyph unicode="%" horiz-adv-x="2084" d="M47 1147q0 127 59.5 226t158.5 150.5t218 51.5q187 0 312 -117.5t125 -310.5q0 -189 -125.5 -307.5t-311.5 -118.5q-183 0 -309.5 119t-126.5 307zM356 0l1010 1530h363l-1010 -1530h-363zM365 1147q0 -63 34.5 -99t83.5 -36q47 0 83 36.5t36 98.5q0 64 -35.5 98.5 t-83.5 34.5q-46 0 -82 -34.5t-36 -98.5zM1165 385q0 127 60 226t158.5 150.5t218.5 51.5q187 0 311.5 -117.5t124.5 -310.5q0 -189 -125 -307.5t-311 -118.5q-119 0 -218.5 52.5t-159 150.5t-59.5 223zM1483 385q0 -63 35 -99t84 -36q46 0 82 36.5t36 98.5q0 64 -35.5 98.5 t-82.5 34.5q-46 0 -82.5 -34.5t-36.5 -98.5z" />
<glyph unicode="&#x26;" horiz-adv-x="1605" d="M57 434q0 136 70.5 229t198.5 158q-78 84 -118 158.5t-40 163.5q0 180 138 295.5t366 115.5q236 0 369 -116t133 -287q0 -140 -81 -230t-237 -163l172 -180l14 22l140 240h399l-317 -498l-4 -6l323 -336h-469l-88 92q-189 -131 -422 -131q-129 0 -234 38.5t-172.5 104 t-104 150.5t-36.5 180zM463 471q0 -67 51.5 -115.5t136.5 -48.5q68 0 135 33l-251 262q-72 -59 -72 -131zM563 1116q0 -30 23.5 -65.5t77.5 -92.5q71 32 108 67t37 81q0 44 -32.5 77.5t-94.5 33.5q-56 0 -87.5 -31t-31.5 -70z" />
<glyph unicode="'" horiz-adv-x="528" d="M82 1530h364l-79 -668h-213z" />
<glyph unicode="(" horiz-adv-x="839" d="M96 643q0 247 89.5 474t256.5 413h402q-59 -62 -115.5 -146.5t-111 -197.5t-88 -256.5t-33.5 -290.5t33.5 -290.5t88 -257t111 -198.5t115.5 -147h-402q-346 385 -346 897z" />
<glyph unicode=")" horiz-adv-x="839" d="M-4 -254q59 62 115.5 147t111 198.5t88 257t33.5 290.5t-33.5 290.5t-88 256.5t-111 197.5t-115.5 146.5h401q167 -186 256.5 -413t89.5 -474q0 -512 -346 -897h-401z" />
<glyph unicode="*" horiz-adv-x="1075" d="M4 1145l107 346l315 -180l-74 340h363l-80 -340l315 174l119 -340l-369 -31l277 -223l-291 -215l-151 319l-148 -319l-289 215l262 223z" />
<glyph unicode="+" horiz-adv-x="1476" d="M113 598v334h442v461h352v-461h459v-334h-459v-463h-352v463h-442z" />
<glyph unicode="," horiz-adv-x="704" d="M90 -274q45 170 62.5 289t17.5 255v131h383v-94q0 -246 -156 -581h-307z" />
<glyph unicode="-" horiz-adv-x="862" d="M106 492v319h650v-319h-650z" />
<glyph unicode="." horiz-adv-x="704" d="M123 213q0 95 67 162t162 67t162.5 -67t67.5 -162t-67.5 -162t-162.5 -67t-162 67t-67 162z" />
<glyph unicode="/" horiz-adv-x="1101" d="M0 -276l690 2080h412l-694 -2080h-408z" />
<glyph unicode="0" horiz-adv-x="1513" d="M86 764q0 180 52.5 332.5t142.5 255t213 160t262 57.5t262 -57.5t213.5 -160t143 -255t52.5 -332.5q0 -179 -52.5 -330.5t-143 -254.5t-213.5 -160.5t-262 -57.5t-262 57.5t-213 160.5t-142.5 254.5t-52.5 330.5zM528 764q0 -182 64.5 -287.5t163.5 -105.5 q101 0 170 106.5t69 286.5q0 182 -69 288.5t-170 106.5q-100 0 -164 -105.5t-64 -289.5z" />
<glyph unicode="1" horiz-adv-x="993" d="M59 850v434l717 266h29v-1550h-438v969z" />
<glyph unicode="2" horiz-adv-x="1333" d="M39 0v25q375 455 431 527q159 202 197 302q21 56 21 109q0 88 -65.5 142t-165.5 54q-93 0 -184.5 -44t-157.5 -118v430q78 63 195 102.5t241 39.5q266 0 433 -151.5t167 -401.5q0 -146 -90.5 -294t-259.5 -327h420v-395h-1182z" />
<glyph unicode="3" horiz-adv-x="1308" d="M139 94v412q76 -68 175 -106t204 -38q114 0 183 38.5t69 103.5q0 112 -235 112h-195v322h168q235 0 235 115q0 44 -58 75t-173 31q-94 0 -186.5 -28t-163.5 -78v385q188 131 467 131q132 0 238.5 -35t173.5 -95.5t103 -139t36 -166.5q0 -109 -54 -195.5t-145 -140.5v-9 q106 -44 174 -139t68 -211q0 -94 -41 -179.5t-115.5 -152t-189 -106t-252.5 -39.5q-292 0 -486 133z" />
<glyph unicode="4" horiz-adv-x="1488" d="M53 301v254l723 975h393v-879h232v-350h-232v-301h-409v301h-707zM485 651h275v377l-275 -375v-2z" />
<glyph unicode="5" horiz-adv-x="1302" d="M131 80v432q183 -141 406 -141q90 0 143 39.5t55 99.5q2 64 -59 108t-178 44q-178 0 -297 -48l-31 21l113 895h835v-400h-526l-23 -143q40 8 95 8q128 0 232 -40t170 -108.5t101 -157.5t35 -191t-40.5 -197t-116.5 -171.5t-197.5 -122.5t-269.5 -46q-229 0 -447 119z" />
<glyph unicode="6" d="M76 537q0 258 243 540l373 453h522v-8l-374 -463q82 -3 157 -31q150 -54 246 -183t96 -296q0 -121 -46.5 -229t-128 -187.5t-201 -125.5t-258.5 -46q-137 0 -255.5 46t-200 124t-127.5 183.5t-46 222.5zM510 545q0 -82 54 -140.5t138 -58.5t138.5 59.5t54.5 141.5 q0 92 -60 147.5t-153 55.5q-40 0 -100 -17q-72 -91 -72 -188z" />
<glyph unicode="7" horiz-adv-x="1314" d="M92 0l596 1130h-584v400h1207v-37l-752 -1493h-467z" />
<glyph unicode="8" horiz-adv-x="1380" d="M76 422q0 116 63 217t180 149v5q-90 47 -145 134t-55 206q0 87 38 165t108 138.5t180.5 96.5t246.5 36q135 0 245.5 -35.5t180 -96t107 -137.5t37.5 -163q0 -121 -55 -208t-146 -136v-5q121 -50 182.5 -146t61.5 -220q0 -90 -40.5 -172.5t-115.5 -147t-193.5 -103 t-263.5 -38.5q-143 0 -261.5 38.5t-194.5 103t-118 147t-42 172.5zM514 467q0 -62 47 -108t131 -46q85 0 132.5 46t47.5 108q0 61 -47.5 106t-132.5 45q-84 0 -131 -44.5t-47 -106.5zM526 1065q0 -57 43.5 -100t122.5 -43q80 0 124 43t44 100q0 56 -43.5 101.5t-124.5 45.5 q-80 0 -123 -45.5t-43 -101.5z" />
<glyph unicode="9" horiz-adv-x="1439" d="M96 981q0 121 46.5 229t128 187.5t201 125.5t257.5 46q137 0 255 -46t198.5 -124t126 -183.5t45.5 -222.5q0 -263 -242 -544l-367 -449h-522v8l365 461q-66 3 -123 20q-159 46 -264 180t-105 312zM539 983q0 -94 58 -148.5t151 -54.5q51 0 100 15q76 96 76 190 q0 82 -54.5 140.5t-138.5 58.5t-138 -59.5t-54 -141.5z" />
<glyph unicode=":" horiz-adv-x="704" d="M123 213q0 95 67 162t162 67t162.5 -67t67.5 -162t-67.5 -162t-162.5 -67t-162 67t-67 162zM123 874q0 95 67 162.5t162 67.5t162.5 -67.5t67.5 -162.5t-67.5 -162t-162.5 -67t-162 67t-67 162z" />
<glyph unicode=";" horiz-adv-x="704" d="M90 -274q45 170 62.5 289t17.5 255v131h383v-94q0 -246 -156 -581h-307zM123 874q0 95 67 162.5t162 67.5t162.5 -67.5t67.5 -162.5t-67.5 -162t-162.5 -67t-162 67t-67 162z" />
<glyph unicode="&#x3c;" horiz-adv-x="1476" d="M158 567l1138 -446v407l-628 236l628 237v408l-1138 -446v-396z" />
<glyph unicode="=" horiz-adv-x="1476" d="M125 354v334h1227v-334h-1227zM125 840v334h1227v-334h-1227z" />
<glyph unicode="&#x3e;" horiz-adv-x="1476" d="M180 121l1139 446v396l-1139 446v-408l629 -237l-629 -236v-407z" />
<glyph unicode="?" horiz-adv-x="1114" d="M84 997v418q87 72 204 113t249 41q122 0 223.5 -41.5t163.5 -108t95.5 -142.5t33.5 -151q0 -40 -7.5 -78.5t-17.5 -69.5t-31.5 -68t-38 -62t-49.5 -64.5t-53.5 -62.5t-62 -68.5t-64.5 -70.5h-401q38 48 94 116t80 98t52.5 71t38 69.5t9.5 58.5q0 74 -50.5 121t-139.5 47 q-154 0 -328 -166zM291 213q0 95 67 162t162 67t162.5 -67t67.5 -162t-67.5 -162t-162.5 -67t-162 67t-67 162z" />
<glyph unicode="@" horiz-adv-x="2027" d="M66 520q0 210 81.5 396.5t220.5 319t330 209.5t404 77q181 0 340 -51t276 -142.5t184.5 -228t67.5 -299.5q0 -142 -50 -270t-137.5 -222.5t-214.5 -150.5t-274 -56h-133l-8 125q-101 -149 -266 -149q-146 0 -243 108.5t-97 305.5q0 223 124.5 374.5t305.5 151.5 q81 0 151.5 -38t106.5 -106l47 119h305l-92 -610q91 59 143 158.5t52 216.5t-49.5 210t-132 149.5t-183.5 86t-211 29.5q-202 0 -366 -92t-256.5 -251.5t-92.5 -352.5q0 -313 192.5 -479.5t526.5 -166.5q192 0 322 41l-43 -280q-157 -39 -295 -39q-312 0 -544.5 105 t-362 311t-129.5 491zM905 522q0 -66 32 -105.5t91 -39.5q73 0 117.5 58t44.5 136q0 66 -33 107t-92 41q-73 0 -116.5 -59t-43.5 -138z" />
<glyph unicode="A" horiz-adv-x="1638" d="M4 0l551 1530h518l561 -1530h-465l-100 301h-506l-96 -301h-463zM678 659h272l-137 418z" />
<glyph unicode="B" horiz-adv-x="1404" d="M127 0v1530h643q129 0 233 -33t170 -90.5t101 -133.5t35 -163q0 -115 -55.5 -198t-149.5 -128v-4q114 -43 175.5 -133.5t61.5 -212.5q0 -89 -33.5 -166t-98 -137.5t-171 -95.5t-241.5 -35h-670zM569 371h185q75 0 114 36t39 93q0 55 -39 90t-112 35h-187v-254zM569 924 h181q69 0 105 33t36 83t-36 84.5t-105 34.5h-181v-235z" />
<glyph unicode="C" horiz-adv-x="1392" d="M66 764q0 175 64 326.5t173 255.5t257.5 163.5t313.5 59.5q217 0 433 -107v-434q-94 67 -182.5 98t-192.5 31q-181 0 -298.5 -111t-117.5 -282q0 -170 117.5 -282.5t298.5 -112.5q101 0 188 34.5t187 106.5v-440q-216 -107 -433 -107q-221 0 -405 100t-293.5 284.5 t-109.5 416.5z" />
<glyph unicode="D" horiz-adv-x="1548" d="M127 0v1530h516q248 0 440.5 -94.5t300 -269.5t107.5 -402t-107.5 -401.5t-300 -268.5t-440.5 -94h-516zM573 403h86q175 0 278 95.5t103 265.5q0 171 -103 266.5t-278 95.5h-86v-723z" />
<glyph unicode="E" horiz-adv-x="1259" d="M127 0v1530h1016v-397h-570v-185h510v-360h-510v-191h570v-397h-1016z" />
<glyph unicode="F" horiz-adv-x="1224" d="M127 0v1530h1016v-404h-570v-268h527v-377h-527v-481h-446z" />
<glyph unicode="G" horiz-adv-x="1564" d="M66 764q0 180 66.5 333t179.5 255.5t261.5 159.5t311.5 57q277 0 491 -123v-430q-91 73 -204.5 106t-221.5 33q-199 0 -316.5 -115.5t-117.5 -285.5q0 -168 107 -280t270 -112q81 0 156 35v426h403v-684q-252 -178 -567 -178q-165 0 -313.5 57t-261 158.5t-178.5 254.5 t-66 333z" />
<glyph unicode="H" horiz-adv-x="1626" d="M127 0v1530h446v-572h480v572h446v-1530h-446v555h-480v-555h-446z" />
<glyph unicode="I" horiz-adv-x="700" d="M127 0v1530h446v-1530h-446z" />
<glyph unicode="J" horiz-adv-x="1048" d="M47 68v415q100 -108 225 -108q100 0 156.5 61t56.5 176v918h447v-973q0 -172 -63 -303t-192 -207t-310 -76q-90 0 -175 26.5t-145 70.5z" />
<glyph unicode="K" horiz-adv-x="1593" d="M127 0v1530h446v-688l484 688h514l-543 -742l551 -788h-514l-492 707v-707h-446z" />
<glyph unicode="L" horiz-adv-x="1218" d="M127 0v1530h446v-1127h601v-403h-1047z" />
<glyph unicode="M" horiz-adv-x="2150" d="M80 0l217 1530h522l264 -850h4l259 850h505l220 -1530h-424l-97 926h-8l-282 -926h-375l-275 926h-8l-102 -926h-420z" />
<glyph unicode="N" horiz-adv-x="1697" d="M127 0v1530h426l608 -885h4q-20 258 -20 694v191h426v-1530h-426l-615 901h-4q21 -360 21 -600v-301h-420z" />
<glyph unicode="O" horiz-adv-x="1757" d="M66 766q0 174 63.5 324.5t172.5 255t258.5 164t318.5 59.5q170 0 320 -59.5t258.5 -164t171.5 -255t63 -324.5t-63 -324.5t-171.5 -255.5t-258.5 -165t-320 -60t-319.5 60t-258.5 165t-172 255.5t-63 324.5zM516 766q0 -183 107.5 -291t255.5 -108q70 0 134.5 27 t115.5 76t81.5 126t30.5 170q0 92 -30.5 168.5t-81.5 125.5t-115.5 76t-134.5 27t-135 -27t-116 -76t-81.5 -125.5t-30.5 -168.5z" />
<glyph unicode="P" horiz-adv-x="1355" d="M127 0v1530h496q335 0 514.5 -153t179.5 -416q0 -117 -42 -223t-122 -190t-209 -133.5t-291 -49.5h-80v-365h-446zM573 760h101q82 0 137 48.5t55 135.5t-55 134.5t-141 47.5h-97v-366z" />
<glyph unicode="Q" horiz-adv-x="1789" d="M49 766q0 174 63.5 324.5t172.5 255t258.5 164t318.5 59.5q170 0 320 -59.5t258.5 -164t171.5 -255t63 -324.5q0 -242 -114 -428l200 -191l-276 -288l-213 202q-180 -100 -410 -100q-170 0 -319.5 60t-258.5 165t-172 255.5t-63 324.5zM500 766q0 -183 107 -291t255 -108 q44 0 80 8l-215 205l277 288l210 -200q11 57 11 98q0 92 -30.5 168.5t-82 125.5t-116 76t-134.5 27t-135 -27t-115.5 -76t-81 -125.5t-30.5 -168.5z" />
<glyph unicode="R" horiz-adv-x="1423" d="M127 0v1530h545q144 0 261.5 -33t204.5 -97.5t135 -167t48 -235.5q0 -150 -80 -271.5t-240 -184.5l400 -541h-527l-290 473h-11v-473h-446zM573 807h97q88 0 144 41.5t56 118.5q0 79 -55.5 119t-146.5 40h-95v-319z" />
<glyph unicode="S" horiz-adv-x="1251" d="M82 1075q0 101 39.5 189.5t112.5 155t185.5 105t250.5 38.5q113 0 227 -29.5t199 -77.5v-393q-70 50 -184.5 82.5t-206.5 32.5q-88 0 -136.5 -25.5t-48.5 -65.5q0 -13 5.5 -24.5t19.5 -22t27 -18.5t39.5 -18.5t44.5 -17.5t53 -19q176 -62 258 -111q221 -141 225 -383 q0 -224 -161 -365t-443 -141q-142 0 -274 37t-220 96v414q86 -69 209 -116.5t229 -47.5q97 0 150 32.5t53 78.5q0 20 -11 37.5t-26 30t-44.5 26.5t-52.5 22.5t-64 23.5q-21 7 -31 11q-43 16 -75.5 29t-79.5 36.5t-81.5 48t-72 61t-61 77t-39 95t-15.5 116.5z" />
<glyph unicode="T" horiz-adv-x="1398" d="M55 1126v404h1288v-404h-419v-1126h-447v1126h-422z" />
<glyph unicode="U" horiz-adv-x="1589" d="M117 623v907h446v-903q0 -126 60 -193t168 -67q111 0 172 67t61 195v901h449v-907q0 -144 -47.5 -266t-134 -209.5t-215.5 -137t-285 -49.5q-207 0 -361 85.5t-233.5 234.5t-79.5 342z" />
<glyph unicode="V" horiz-adv-x="1638" d="M4 1530h465l356 -1061l346 1061h463l-567 -1530h-483z" />
<glyph unicode="W" horiz-adv-x="2367" d="M14 1530h451l250 -1002h4l270 1002h410l278 -1004h4l236 1004h436l-440 -1530h-447l-268 934h-4l-260 -934h-465z" />
<glyph unicode="X" horiz-adv-x="1558" d="M23 1530h516l252 -451l229 451h510l-465 -764l471 -766h-514l-254 451l-231 -451h-510l465 764z" />
<glyph unicode="Y" horiz-adv-x="1570" d="M-8 1530h500l305 -553h8l301 553h473l-569 -946v-584h-447v582z" />
<glyph unicode="Z" horiz-adv-x="1349" d="M49 0v14l598 1112h-545v404h1207v-14l-598 -1113h546v-403h-1208z" />
<glyph unicode="[" horiz-adv-x="956" d="M205 -430v2081h682v-303h-352v-1475h352v-303h-682z" />
<glyph unicode="\" horiz-adv-x="1101" d="M0 1804h412l690 -2080h-408z" />
<glyph unicode="]" horiz-adv-x="956" d="M70 -127h352v1475h-352v303h682v-2081h-682v303z" />
<glyph unicode="^" horiz-adv-x="1476" d="M135 442l426 1088h354l426 -1088h-407l-195 541l-192 -541h-412z" />
<glyph unicode="_" horiz-adv-x="1079" d="M0 -57h1079v-330h-1079v330z" />
<glyph unicode="`" horiz-adv-x="1046" d="M227 1651l322 -377h321l-225 377h-418z" />
<glyph unicode="a" d="M55 573q0 133 43.5 250t114.5 196t162 124t186 45q223 0 354 -182l41 149h373v-1155h-373l-41 150q-131 -183 -354 -183q-95 0 -186 45t-162 123t-114.5 193t-43.5 245zM498 578q0 -94 56.5 -158t145.5 -64q87 0 142 63t55 159t-55 158.5t-142 62.5q-89 0 -145.5 -64.5 t-56.5 -156.5z" />
<glyph unicode="b" d="M106 0v1651h439v-639q51 76 145.5 126t198.5 50q99 0 188.5 -43.5t156.5 -121.5t106.5 -193.5t39.5 -251.5q0 -135 -42.5 -251.5t-113.5 -194t-163.5 -121.5t-192.5 -44q-116 0 -203.5 52t-144.5 131l-41 -150h-373zM541 578q0 -97 54.5 -159.5t141.5 -62.5 q88 0 144.5 63t56.5 156t-57 158.5t-146 65.5q-86 0 -140 -62.5t-54 -158.5z" />
<glyph unicode="c" horiz-adv-x="1112" d="M55 580q0 177 84 317t227 215.5t316 75.5q203 0 354 -80v-389q-135 80 -278 80q-114 0 -187 -60.5t-73 -160.5t73 -161t187 -61q159 0 278 82v-389q-161 -82 -354 -82q-174 0 -317 77t-226.5 218t-83.5 318z" />
<glyph unicode="d" d="M55 578q0 135 42 251t112.5 193.5t162 121.5t191.5 44q110 0 194.5 -48.5t133.5 -127.5v639h438v-1651h-373l-41 150q-57 -80 -143.5 -131.5t-202.5 -51.5q-100 0 -192.5 44t-164 121.5t-114.5 194t-43 251.5zM498 578q0 -94 56.5 -158t145.5 -64q87 0 142 63t55 159 t-55 158.5t-142 62.5q-89 0 -145.5 -64.5t-56.5 -156.5z" />
<glyph unicode="e" horiz-adv-x="1282" d="M55 575q0 181 80 322t215 216t299 75q254 0 411 -154.5t157 -437.5q0 -65 -11 -133h-712q26 -69 100 -110.5t188 -41.5q191 0 357 76v-334q-90 -40 -199.5 -63t-200.5 -23q-162 0 -292.5 47t-215.5 129t-130.5 192.5t-45.5 239.5zM485 713h318q-2 56 -45 96.5t-109 40.5 t-112 -40t-52 -97z" />
<glyph unicode="f" horiz-adv-x="976" d="M51 799v356h156v74q0 82 30.5 159t89.5 141.5t157 104t221 39.5q120 0 243 -35v-358q-79 23 -157 23q-156 0 -156 -103v-45h285v-356h-279v-799h-438v799h-152z" />
<glyph unicode="g" horiz-adv-x="1425" d="M55 608q0 121 43 229.5t114 184.5t164 120t191 44q206 0 338 -180l41 149h373v-969q0 -300 -191.5 -474.5t-517.5 -174.5q-251 0 -442 123v399q83 -66 194 -107.5t201 -41.5q148 0 233 65t85 168v54q-49 -73 -130 -121.5t-190 -48.5q-100 0 -192 43t-161.5 118 t-111 184.5t-41.5 235.5zM498 606q0 -82 54 -140t140 -58t140.5 58t54.5 140q0 80 -55 139.5t-140 59.5t-139.5 -59.5t-54.5 -139.5z" />
<glyph unicode="h" horiz-adv-x="1341" d="M106 0v1651h439v-586h2q50 54 128 88.5t167 34.5q184 0 290.5 -108t106.5 -302v-778h-438v664q0 135 -121 135q-62 0 -98.5 -36t-36.5 -93v-670h-439z" />
<glyph unicode="i" horiz-adv-x="651" d="M98 1460q0 94 66.5 160t161.5 66q94 0 160.5 -66t66.5 -160t-66.5 -159.5t-160.5 -65.5q-95 0 -161.5 65.5t-66.5 159.5zM106 0v1155h439v-1155h-439z" />
<glyph unicode="j" horiz-adv-x="651" d="M-115 -430q119 138 170 275.5t51 342.5v967h439v-919q0 -202 -43 -364.5t-148 -301.5h-469zM98 1460q0 94 66.5 160t161.5 66q94 0 160.5 -66t66.5 -160t-66.5 -159.5t-160.5 -65.5q-95 0 -161.5 65.5t-66.5 159.5z" />
<glyph unicode="k" horiz-adv-x="1406" d="M106 0v1651h439v-1014l352 518h504l-391 -551l401 -604h-526l-340 528v-528h-439z" />
<glyph unicode="l" horiz-adv-x="651" d="M106 0v1651h439v-1651h-439z" />
<glyph unicode="m" horiz-adv-x="1961" d="M106 0v1155h340l43 -151h9q121 184 327 184q224 0 326 -193q126 193 332 193q185 0 281 -113t96 -313v-762h-439v664q0 72 -23.5 103.5t-82.5 31.5q-55 0 -84 -31t-29 -82v-686h-438v664q0 72 -24 103.5t-83 31.5q-57 0 -84.5 -35t-27.5 -94v-670h-439z" />
<glyph unicode="n" horiz-adv-x="1341" d="M106 0v1155h340l43 -151h9q55 85 142.5 134.5t199.5 49.5q189 0 294 -107.5t105 -302.5v-778h-438v664q0 135 -121 135q-62 0 -98.5 -36t-36.5 -93v-670h-439z" />
<glyph unicode="o" horiz-adv-x="1372" d="M55 580q0 180 85.5 320t228.5 214t317 74q177 0 320 -74t227 -214t84 -320t-84 -320.5t-227.5 -216.5t-319.5 -76q-130 0 -246 44.5t-201 123.5t-134.5 194.5t-49.5 250.5zM498 580q0 -101 56 -162.5t132 -61.5t132 61.5t56 162.5t-55.5 160t-132.5 59 q-75 0 -131.5 -59.5t-56.5 -159.5z" />
<glyph unicode="p" d="M106 -430v1585h373l41 -149q56 79 145 130.5t205 51.5q100 0 192 -44t162.5 -121.5t113 -193.5t42.5 -251q0 -136 -40.5 -251.5t-108.5 -193.5t-158 -122t-190 -44q-104 0 -195 49.5t-143 126.5v-573h-439zM541 578q0 -96 54 -159t140 -63q89 0 146 65.5t57 158.5 t-56.5 156t-144.5 63q-87 0 -141.5 -62t-54.5 -159z" />
<glyph unicode="q" d="M55 561q0 276 143.5 451.5t354.5 175.5q231 0 362 -182l41 149h373v-1585h-438v569q-125 -172 -338 -172q-99 0 -190 45t-159 122.5t-108.5 189t-40.5 237.5zM498 578q0 -94 56.5 -158t145.5 -64q87 0 142 63t55 159t-55 158.5t-142 62.5q-89 0 -145.5 -64.5 t-56.5 -156.5z" />
<glyph unicode="r" horiz-adv-x="940" d="M106 0v1155h349l43 -164h4q53 93 134.5 135.5t168.5 42.5q51 0 94 -12v-405q-53 10 -100 12q-5 0 -10 1q-42 0 -85 -12q-48 -13 -82 -41.5t-55.5 -83.5t-21.5 -132v-496h-439z" />
<glyph unicode="s" horiz-adv-x="1085" d="M76 797q0 171 137.5 284t378.5 113q99 0 200.5 -22.5t174.5 -59.5v-358q-61 35 -162 58.5t-184 23.5q-134 0 -134 -37q0 -16 32.5 -27.5t111.5 -28.5q45 -10 79.5 -19t80 -25.5t79.5 -35.5t69.5 -47.5t58 -62t37 -80t14.5 -100.5q0 -181 -141 -293.5t-390 -112.5 q-121 0 -236.5 26.5t-191.5 67.5v379q84 -54 193.5 -87.5t208.5 -33.5q126 0 126 41q0 11 -8 19t-27.5 15.5t-36.5 12t-50 12.5t-52 13q-50 13 -93.5 29t-96.5 47t-90 68.5t-62.5 95t-25.5 125.5z" />
<glyph unicode="t" horiz-adv-x="1013" d="M41 799v356h158v266h422v-266h292v-356h-292v-295q0 -55 25 -91.5t68 -50.5q42 -16 98 -18h19q47 0 97 10v-364q-108 -23 -213 -23q-254 0 -385 137t-131 373v322h-158z" />
<glyph unicode="u" horiz-adv-x="1325" d="M96 487v668h439v-661q0 -138 127 -138q129 0 129 138v661h438v-668q0 -230 -153 -375t-414 -145t-413.5 145t-152.5 375z" />
<glyph unicode="v" horiz-adv-x="1314" d="M4 1155h467l191 -702h8l194 702h447l-422 -1155h-465z" />
<glyph unicode="w" horiz-adv-x="1947" d="M25 1155h462l119 -702h8l162 702h420l154 -702h8l131 702h434l-297 -1155h-500l-143 633h-6l-152 -633h-503z" />
<glyph unicode="x" horiz-adv-x="1310" d="M4 0l387 575l-383 580h475l166 -303h8l164 303h469l-379 -563l396 -592h-496l-166 301h-8l-164 -301h-469z" />
<glyph unicode="y" horiz-adv-x="1323" d="M4 1155h467l197 -670h8l196 670h447l-635 -1585h-434l194 455z" />
<glyph unicode="z" horiz-adv-x="1177" d="M27 0v18l467 746h-404v391h1061v-16l-446 -746h395v-393h-1073z" />
<glyph unicode="{" horiz-adv-x="886" d="M88 463v237q209 38 209 215v277q0 222 130 336t386 76v-291q-116 10 -161.5 -32.5t-45.5 -131.5v-264q0 -62 -16.5 -116.5t-61 -106.5t-114.5 -80q70 -26 114.5 -77.5t61 -106.5t16.5 -119v-259q0 -89 45.5 -131t161.5 -32v-289q-130 -20 -229.5 1t-161.5 78t-93.5 141 t-31.5 192v268q0 179 -209 215z" />
<glyph unicode="|" horiz-adv-x="985" d="M307 -375v2278h371v-2278h-371z" />
<glyph unicode="}" horiz-adv-x="886" d="M74 -143q116 -10 161.5 32t45.5 131v259q0 100 45 182.5t147 122.5q-70 27 -114.5 78.5t-61 106t-16.5 116.5v264q0 89 -45.5 131.5t-161.5 32.5v291q256 38 386 -76t130 -336v-277q0 -177 209 -215v-237q-209 -36 -209 -215v-268q0 -108 -31.5 -192t-93.5 -141 t-161.5 -78t-229.5 -1v289z" />
<glyph unicode="~" horiz-adv-x="1476" d="M41 508q0 522 401 522q67 0 140.5 -23t127.5 -50.5t119 -50.5t117 -23q64 0 108.5 34t55.5 105h326q0 -522 -402 -522q-67 0 -140.5 23t-127.5 50.5t-119 50.5t-117 23q-64 0 -108 -34t-55 -105h-326z" />
<glyph unicode="&#xa1;" horiz-adv-x="671" d="M106 0l80 954h295l84 -954h-459zM106 1317q0 95 67.5 162t162.5 67t162 -67t67 -162t-67 -162.5t-162 -67.5t-162.5 67.5t-67.5 162.5z" />
<glyph unicode="&#xa2;" horiz-adv-x="1159" d="M55 571q0 217 128 368t333 198v213h270v-201q144 -16 256 -74v-389q-133 78 -272 78q-113 0 -183.5 -50.5t-70.5 -144.5q0 -92 70.5 -142t183.5 -50q153 0 272 80v-391q-113 -55 -256 -74v-174h-270v186q-205 47 -333 199t-128 368z" />
<glyph unicode="&#xa3;" horiz-adv-x="1343" d="M84 0v25q72 96 117 218t86 320l8 43h-174v273h231l21 104q23 110 54.5 196t82 161t118.5 124t163.5 77t216.5 28q92 0 196 -29v-366q-64 24 -155 24q-111 0 -175 -58.5t-92 -187.5l-14 -73h293v-273h-346l-2 -8q-31 -152 -88 -229h592v-369h-1133z" />
<glyph unicode="&#xa4;" horiz-adv-x="1400" d="M106 1128l228 232l129 -129q112 59 242 59q127 0 245 -59l117 127l227 -232l-123 -122q62 -114 62 -240q0 -123 -55 -240l114 -123l-227 -227l-119 121q-125 -59 -241 -59q-132 0 -244 53l-123 -117l-229 225l122 119q-63 123 -63 248q0 124 63 240zM461 764 q0 -101 70 -170.5t171 -69.5q99 0 170.5 70t71.5 170q0 98 -72 169t-170 71q-101 0 -171 -70.5t-70 -169.5z" />
<glyph unicode="&#xa5;" horiz-adv-x="1636" d="M25 1530h499l305 -494h9l301 494h473l-469 -699h188v-229h-289v-59h289v-230h-289v-313h-446v313h-289v230h289v59h-289v229h187z" />
<glyph unicode="&#xa6;" horiz-adv-x="927" d="M307 -375v942h314v-942h-314zM307 961v942h314v-942h-314z" />
<glyph unicode="&#xa7;" horiz-adv-x="1196" d="M86 545q0 90 47 170.5t137 136.5q-143 109 -143 287q0 88 34.5 165.5t98.5 136.5t163 93.5t220 34.5q232 0 375 -80v-361q-63 43 -162 72t-176 29q-80 0 -123 -21t-43 -53q0 -31 41 -53t156 -66q191 -73 285 -161.5t94 -225.5q0 -90 -42.5 -170.5t-123.5 -136.5 q139 -106 139 -289q0 -192 -143 -318t-367 -126q-113 0 -224 29t-184 77v377q74 -61 177 -102t196 -41q148 0 148 86q0 19 -11.5 36t-26 29t-46 26.5t-53 22.5t-64.5 23q-88 31 -148.5 61t-117 74t-85 103.5t-28.5 134.5zM467 606q0 -37 32.5 -63.5t94.5 -50.5 q51 14 81 42.5t30 63.5q0 34 -25.5 57.5t-73.5 44.5q-60 0 -99.5 -30.5t-39.5 -63.5z" />
<glyph unicode="&#xa8;" horiz-adv-x="1054" d="M80 1468q0 76 55.5 131.5t132.5 55.5q78 0 134.5 -55.5t56.5 -131.5t-56.5 -131t-134.5 -55q-77 0 -132.5 55t-55.5 131zM596 1468q0 77 55 132t133 55t133.5 -55t55.5 -132t-55.5 -131.5t-133.5 -54.5t-133 54.5t-55 131.5z" />
<glyph unicode="&#xa9;" horiz-adv-x="1802" d="M86 764q0 163 64 312t172.5 257t260 172t318.5 64t318.5 -64t260 -172t172.5 -257t64 -312t-64 -311.5t-172.5 -256t-260 -171.5t-318.5 -64t-318.5 64t-260 171.5t-172.5 256t-64 311.5zM303 764q0 -163 78.5 -299.5t216 -215.5t303.5 -79q167 0 304.5 79.5t215.5 215.5 t78 299q0 164 -78 300.5t-215.5 216t-304.5 79.5q-166 0 -303.5 -79.5t-216 -216t-78.5 -300.5zM492 762q0 125 59.5 224t157.5 151.5t215 52.5q131 0 239 -53v-236q-95 68 -200 68q-99 0 -162.5 -57.5t-63.5 -149.5q0 -90 63.5 -147.5t162.5 -57.5q106 0 200 68v-236 q-104 -51 -239 -51q-180 0 -306 118.5t-126 305.5z" />
<glyph unicode="&#xaa;" horiz-adv-x="1132" d="M68 1087q0 101 32 190t84.5 148.5t120.5 94t139 34.5q169 0 265 -135l32 111h293v-877h-293l-32 111q-93 -135 -265 -135q-71 0 -139 34t-120.5 93t-84.5 146t-32 185zM410 1092q0 -66 40.5 -112t104.5 -46q62 0 100.5 45t38.5 113t-38.5 112.5t-100.5 44.5 q-64 0 -104.5 -46.5t-40.5 -110.5z" />
<glyph unicode="&#xab;" horiz-adv-x="1662" d="M117 467v221l665 504v-401l-311 -213l311 -213v-402zM829 467v221l666 504v-401l-311 -213l311 -213v-402z" />
<glyph unicode="&#xac;" horiz-adv-x="1476" d="M113 598v334h1253v-797h-352v463h-901z" />
<glyph unicode="&#xad;" horiz-adv-x="862" d="M106 492v319h650v-319h-650z" />
<glyph unicode="&#xae;" horiz-adv-x="1802" d="M86 764q0 163 64 312t172.5 257t260 172t318.5 64t318.5 -64t260 -172t172.5 -257t64 -312t-64 -311.5t-172.5 -256t-260 -171.5t-318.5 -64t-318.5 64t-260 171.5t-172.5 256t-64 311.5zM303 764q0 -163 78.5 -299.5t216 -215.5t303.5 -79q167 0 304.5 79.5t215.5 215.5 t78 299q0 164 -78 300.5t-215.5 216t-304.5 79.5q-166 0 -303.5 -79.5t-216 -216t-78.5 -300.5zM606 365v809h268q160 0 256.5 -77t96.5 -212q0 -73 -49 -137.5t-121 -96.5l217 -286h-266l-164 249h-19v-249h-219zM821 795h60q53 0 89 25.5t36 68.5q0 53 -42 72.5t-112 19.5 h-31v-186z" />
<glyph unicode="&#xaf;" horiz-adv-x="1056" d="M131 1343v252h797v-252h-797z" />
<glyph unicode="&#xb0;" horiz-adv-x="878" d="M74 1206q0 152 105 257.5t259 105.5t260.5 -105.5t106.5 -257.5q0 -149 -106.5 -253.5t-260.5 -104.5q-153 0 -258.5 104t-105.5 254zM295 1206q0 -61 41 -101t102 -40q64 0 104 39.5t40 101.5q0 64 -40 105t-104 41q-60 0 -101.5 -41.5t-41.5 -104.5z" />
<glyph unicode="&#xb1;" horiz-adv-x="1476" d="M156 0v334h1167v-334h-1167zM156 811v334h397v385h352v-385h418v-334h-418v-369h-352v369h-397z" />
<glyph unicode="&#xb2;" horiz-adv-x="864" d="M68 680v31q229 260 280 328q76 100 76 155q0 45 -32 71.5t-85 26.5q-91 0 -192 -90v289q55 37 134.5 57.5t158.5 20.5q161 0 259.5 -80.5t98.5 -212.5q0 -47 -13.5 -88.5t-44.5 -84t-61.5 -75.5t-85.5 -86h236v-262h-729z" />
<glyph unicode="&#xb3;" horiz-adv-x="835" d="M90 752v260q103 -84 262 -84q40 0 75.5 13t35.5 42q0 45 -113 45h-143v207h151q86 0 86 41q0 22 -30.5 34.5t-77.5 12.5q-124 0 -225 -53v233q40 29 120 47.5t154 18.5q75 0 136 -14t100.5 -37.5t67 -54.5t39 -63t11.5 -65q0 -68 -27 -110.5t-79 -79.5v-4q63 -25 97 -82 t34 -109q0 -119 -99 -197.5t-264 -78.5q-85 0 -173.5 21.5t-137.5 56.5z" />
<glyph unicode="&#xb4;" horiz-adv-x="1046" d="M209 1274l225 377h418l-322 -377h-321z" />
<glyph unicode="&#xb5;" horiz-adv-x="1345" d="M106 -430v1585h439v-684q0 -55 32 -85t91 -30q62 0 97.5 36t35.5 93v670h438v-1155h-321l-44 150q-86 -166 -264 -166q-135 0 -237 129l184 -543h-451z" />
<glyph unicode="&#xb6;" horiz-adv-x="1648" d="M55 1016q0 107 41 200.5t117 163.5t191.5 110t257.5 40h860v-1960h-330v1642h-137v-1642h-332v944h-61q-141 0 -257.5 40.5t-192 109.5t-116.5 159.5t-41 192.5z" />
<glyph unicode="&#xb7;" horiz-adv-x="704" d="M123 764q0 95 67 162t162 67t162.5 -67t67.5 -162t-67.5 -162t-162.5 -67t-162 67t-67 162z" />
<glyph unicode="&#xb8;" horiz-adv-x="1046" d="M135 -387q209 230 209 426h336q0 -253 -141 -426h-404z" />
<glyph unicode="&#xb9;" horiz-adv-x="774" d="M117 1106v280l491 168h19v-905h-295v533z" />
<glyph unicode="&#xba;" horiz-adv-x="1081" d="M61 1094q0 136 65 242t174 162t241 56q205 0 342 -127.5t137 -332.5q0 -207 -137 -336t-342 -129q-133 0 -242 57t-173.5 164t-64.5 244zM403 1094q0 -75 40.5 -118.5t97.5 -43.5q56 0 96.5 44t40.5 118q0 73 -40.5 114t-96.5 41t-97 -41t-41 -114z" />
<glyph unicode="&#xbb;" horiz-adv-x="1665" d="M115 -37v402l311 213l-311 213v401l665 -504v-221zM829 -37v402l312 213l-312 213v401l666 -504v-221z" />
<glyph unicode="&#xbc;" horiz-adv-x="1931" d="M84 1106v280l491 168h19v-905h-295v533zM330 0l1009 1530h252l-1009 -1530h-252zM1001 164v182l385 535h302v-471h133v-246h-133v-164h-252v164h-435zM1315 410h121v157z" />
<glyph unicode="&#xbd;" horiz-adv-x="1943" d="M84 1106v280l491 168h19v-905h-295v533zM330 0l1009 1530h252l-1009 -1530h-252zM1165 0v31q229 261 278 325q79 103 79 158q0 45 -32 71.5t-85 26.5q-92 0 -193 -90v289q55 37 134.5 57.5t158.5 20.5q161 0 260 -80.5t99 -212.5q0 -47 -13.5 -88.5t-44.5 -84 t-61.5 -75.5t-85.5 -86h235v-262h-729z" />
<glyph unicode="&#xbe;" horiz-adv-x="1994" d="M90 752v260q103 -84 262 -84q40 0 75.5 13t35.5 42q0 45 -113 45h-143v207h151q86 0 86 41q0 22 -30.5 34.5t-77.5 12.5q-124 0 -225 -53v233q40 29 120 47.5t154 18.5q75 0 136 -14t100.5 -37.5t67 -54.5t39 -63t11.5 -65q0 -68 -27 -110.5t-79 -79.5v-4q63 -25 97 -82 t34 -109q0 -119 -99 -197.5t-264 -78.5q-85 0 -173.5 21.5t-137.5 56.5zM365 0l1009 1530h252l-1010 -1530h-251zM1065 164v182l385 535h301v-471h133v-246h-133v-164h-252v164h-434zM1378 410h121v157z" />
<glyph unicode="&#xbf;" horiz-adv-x="1114" d="M80 403q0 40 7.5 78.5t17 69.5t31.5 68.5t38 62t49.5 65t53 62t62.5 68.5t64 71h402q-39 -48 -94.5 -115.5t-80 -98t-52.5 -71t-38 -69.5t-10 -59q0 -74 51 -121t140 -47q155 0 328 165v-417q-87 -72 -204 -113t-249 -41q-122 0 -223.5 41.5t-163.5 107.5t-95.5 142 t-33.5 151zM383 1317q0 95 67 162t162 67t162.5 -67t67.5 -162t-67.5 -162.5t-162.5 -67.5t-162 67.5t-67 162.5z" />
<glyph unicode="&#xc0;" horiz-adv-x="1638" d="M4 0l551 1530h518l561 -1530h-465l-100 301h-506l-96 -301h-463zM410 2025h417l226 -376h-322zM678 659h272l-137 418z" />
<glyph unicode="&#xc1;" horiz-adv-x="1638" d="M4 0l551 1530h518l561 -1530h-465l-100 301h-506l-96 -301h-463zM614 1649l226 376h417l-321 -376h-322zM678 659h272l-137 418z" />
<glyph unicode="&#xc2;" horiz-adv-x="1638" d="M4 0l551 1530h518l561 -1530h-465l-100 301h-506l-96 -301h-463zM352 1653l307 372h299l318 -372h-363l-106 143l-102 -143h-353zM678 659h272l-137 418z" />
<glyph unicode="&#xc3;" horiz-adv-x="1638" d="M4 0l551 1530h518l561 -1530h-465l-100 301h-506l-96 -301h-463zM315 1661q-10 181 71.5 275t225.5 94q52 0 104 -17.5t87.5 -39t79.5 -39t82 -17.5q52 0 77 31.5t25 76.5h244q10 -181 -72 -274.5t-227 -93.5q-51 0 -102.5 17.5t-86.5 38.5t-79 38.5t-82 17.5 q-52 0 -77.5 -31.5t-25.5 -76.5h-244zM678 659h272l-137 418z" />
<glyph unicode="&#xc4;" horiz-adv-x="1638" d="M4 0l551 1530h518l561 -1530h-465l-100 301h-506l-96 -301h-463zM367 1843q0 76 55.5 131.5t132.5 55.5q78 0 134 -55t56 -132q0 -76 -56 -131t-134 -55q-77 0 -132.5 55t-55.5 131zM678 659h272l-137 418zM883 1843q0 77 55 132t133 55t133.5 -55t55.5 -132 t-55.5 -131.5t-133.5 -54.5t-133 54.5t-55 131.5z" />
<glyph unicode="&#xc5;" horiz-adv-x="1638" d="M4 0l551 1530h518l561 -1530h-465l-100 301h-506l-96 -301h-463zM530 1901q0 113 81.5 185.5t201.5 72.5q123 0 201 -72t78 -186q0 -107 -79 -180.5t-200 -73.5q-118 0 -200.5 74t-82.5 180zM678 659h272l-137 418zM707 1901q0 -43 33 -71t73 -28t72.5 28t32.5 71 q0 49 -32 74.5t-73 25.5q-42 0 -74 -25.5t-32 -74.5z" />
<glyph unicode="&#xc6;" horiz-adv-x="2291" d="M-6 0l993 1530h1188v-404h-569v-178h512v-360h-512v-185h569v-403h-1016v317h-452l-197 -317h-516zM924 674h235v381z" />
<glyph unicode="&#xc7;" horiz-adv-x="1392" d="M66 764q0 175 64 326.5t173 255.5t257.5 163.5t313.5 59.5q217 0 433 -107v-434q-94 67 -182.5 98t-192.5 31q-181 0 -298.5 -111t-117.5 -282q0 -170 117.5 -282.5t298.5 -112.5q101 0 188 34.5t187 106.5v-440q-164 -82 -312 -99q-20 -214 -139 -358h-403 q183 206 204 377q-128 33 -236 103t-187 168.5t-123.5 228t-44.5 274.5z" />
<glyph unicode="&#xc8;" horiz-adv-x="1259" d="M127 0v1530h1016v-397h-570v-185h510v-360h-510v-191h570v-397h-1016zM231 2025l322 -376h321l-225 376h-418z" />
<glyph unicode="&#xc9;" horiz-adv-x="1259" d="M127 0v1530h1016v-397h-570v-185h510v-360h-510v-191h570v-397h-1016zM436 1649l226 376h417l-321 -376h-322z" />
<glyph unicode="&#xca;" horiz-adv-x="1259" d="M127 0v1530h1016v-397h-570v-185h510v-360h-510v-191h570v-397h-1016zM174 1653l307 372h299l318 -372h-363l-106 143l-103 -143h-352z" />
<glyph unicode="&#xcb;" horiz-adv-x="1259" d="M127 0v1530h1016v-397h-570v-185h510v-360h-510v-191h570v-397h-1016zM188 1843q0 76 56 131.5t133 55.5q78 0 134 -55t56 -132q0 -76 -56 -131t-134 -55q-77 0 -133 55t-56 131zM705 1843q0 77 55 132t133 55t133 -55t55 -132t-55 -131.5t-133 -54.5t-133 54.5 t-55 131.5z" />
<glyph unicode="&#xcc;" horiz-adv-x="700" d="M-53 2025l321 -376h322l-225 376h-418zM127 0v1530h446v-1530h-446z" />
<glyph unicode="&#xcd;" horiz-adv-x="700" d="M127 0v1530h446v-1530h-446zM152 1649l225 376h418l-322 -376h-321z" />
<glyph unicode="&#xce;" horiz-adv-x="700" d="M-111 1653l308 372h299l317 -372h-362l-107 143l-102 -143h-353zM127 0v1530h446v-1530h-446z" />
<glyph unicode="&#xcf;" horiz-adv-x="700" d="M-96 1843q0 76 55.5 131.5t132.5 55.5q78 0 134.5 -55.5t56.5 -131.5t-56.5 -131t-134.5 -55q-77 0 -132.5 55t-55.5 131zM127 0v1530h446v-1530h-446zM420 1843q0 77 55 132t133 55t133.5 -55t55.5 -132t-55.5 -131.5t-133.5 -54.5t-133 54.5t-55 131.5z" />
<glyph unicode="&#xd0;" horiz-adv-x="1581" d="M47 602v320h143v608h517q186 0 343 -55.5t268 -154.5t173.5 -242t62.5 -314t-62.5 -313.5t-173.5 -241.5t-268 -154t-343 -55h-517v602h-143zM637 403h86q175 0 278 95.5t103 265.5q0 171 -103 266.5t-278 95.5h-86v-204h244v-320h-244v-199z" />
<glyph unicode="&#xd1;" horiz-adv-x="1697" d="M127 0v1530h426l608 -885h4q-20 258 -20 694v191h426v-1530h-426l-615 901h-4q21 -360 21 -600v-301h-420zM350 1661q-10 181 71.5 275t225.5 94q52 0 104 -17.5t87 -39t79 -39t82 -17.5q52 0 77.5 31.5t25.5 76.5h244q10 -181 -72 -274.5t-227 -93.5q-64 0 -127.5 28 t-120 56t-103.5 28q-52 0 -77 -31.5t-25 -76.5h-244z" />
<glyph unicode="&#xd2;" horiz-adv-x="1757" d="M66 766q0 174 63.5 324.5t172.5 255t258.5 164t318.5 59.5q170 0 320 -59.5t258.5 -164t171.5 -255t63 -324.5t-63 -324.5t-171.5 -255.5t-258.5 -165t-320 -60t-319.5 60t-258.5 165t-172 255.5t-63 324.5zM416 2083l321 -377h322l-225 377h-418zM516 766 q0 -183 107.5 -291t255.5 -108q70 0 134.5 27t115.5 76t81.5 126t30.5 170q0 92 -30.5 168.5t-81.5 125.5t-115.5 76t-134.5 27t-135 -27t-116 -76t-81.5 -125.5t-30.5 -168.5z" />
<glyph unicode="&#xd3;" horiz-adv-x="1757" d="M66 766q0 174 63.5 324.5t172.5 255t258.5 164t318.5 59.5q170 0 320 -59.5t258.5 -164t171.5 -255t63 -324.5t-63 -324.5t-171.5 -255.5t-258.5 -165t-320 -60t-319.5 60t-258.5 165t-172 255.5t-63 324.5zM516 766q0 -183 107.5 -291t255.5 -108q70 0 134.5 27 t115.5 76t81.5 126t30.5 170q0 92 -30.5 168.5t-81.5 125.5t-115.5 76t-134.5 27t-135 -27t-116 -76t-81.5 -125.5t-30.5 -168.5zM690 1706l225 377h418l-321 -377h-322z" />
<glyph unicode="&#xd4;" horiz-adv-x="1757" d="M66 766q0 174 63.5 324.5t172.5 255t258.5 164t318.5 59.5q170 0 320 -59.5t258.5 -164t171.5 -255t63 -324.5t-63 -324.5t-171.5 -255.5t-258.5 -165t-320 -60t-319.5 60t-258.5 165t-172 255.5t-63 324.5zM428 1692l307 372h299l318 -372h-363l-106 143l-103 -143h-352 zM516 766q0 -183 107.5 -291t255.5 -108q70 0 134.5 27t115.5 76t81.5 126t30.5 170q0 92 -30.5 168.5t-81.5 125.5t-115.5 76t-134.5 27t-135 -27t-116 -76t-81.5 -125.5t-30.5 -168.5z" />
<glyph unicode="&#xd5;" horiz-adv-x="1757" d="M66 766q0 174 63.5 324.5t172.5 255t258.5 164t318.5 59.5q170 0 320 -59.5t258.5 -164t171.5 -255t63 -324.5t-63 -324.5t-171.5 -255.5t-258.5 -165t-320 -60t-319.5 60t-258.5 165t-172 255.5t-63 324.5zM369 1720q-10 181 71.5 275t225.5 94q52 0 104 -17.5t87 -39 t79 -39t82 -17.5q51 0 76.5 32t25.5 77h244q10 -181 -72 -275t-227 -94q-51 0 -102.5 17.5t-86.5 39t-79 39t-82 17.5q-52 0 -77.5 -32t-25.5 -77h-243zM516 766q0 -183 107.5 -291t255.5 -108q70 0 134.5 27t115.5 76t81.5 126t30.5 170q0 92 -30.5 168.5t-81.5 125.5 t-115.5 76t-134.5 27t-135 -27t-116 -76t-81.5 -125.5t-30.5 -168.5z" />
<glyph unicode="&#xd6;" horiz-adv-x="1757" d="M66 766q0 174 63.5 324.5t172.5 255t258.5 164t318.5 59.5q170 0 320 -59.5t258.5 -164t171.5 -255t63 -324.5t-63 -324.5t-171.5 -255.5t-258.5 -165t-320 -60t-319.5 60t-258.5 165t-172 255.5t-63 324.5zM426 1903q0 76 55.5 131t132.5 55q78 0 134.5 -55t56.5 -131 t-56.5 -131.5t-134.5 -55.5q-77 0 -132.5 55.5t-55.5 131.5zM516 766q0 -183 107.5 -291t255.5 -108q70 0 134.5 27t115.5 76t81.5 126t30.5 170q0 92 -30.5 168.5t-81.5 125.5t-115.5 76t-134.5 27t-135 -27t-116 -76t-81.5 -125.5t-30.5 -168.5zM942 1903q0 77 55 131.5 t133 54.5t133.5 -54.5t55.5 -131.5t-55.5 -132t-133.5 -55t-133 55t-55 132z" />
<glyph unicode="&#xd7;" horiz-adv-x="1476" d="M117 381l385 383l-385 383l235 235l385 -383l385 383l236 -235l-385 -383l385 -383l-236 -236l-385 383l-385 -383z" />
<glyph unicode="&#xd8;" horiz-adv-x="1757" d="M66 766q0 174 63.5 324.5t172.5 255t258.5 164t318.5 59.5q254 0 454 -127l133 139l189 -184l-127 -131q164 -210 164 -500q0 -174 -63 -324.5t-171.5 -255.5t-258.5 -165t-320 -60q-263 0 -467 137l-144 -149l-188 182l141 148q-155 207 -155 487zM516 766 q0 -84 25 -154l491 516q-72 35 -153 35q-70 0 -135 -27t-116 -76t-81.5 -125.5t-30.5 -168.5zM709 410q76 -43 170 -43q70 0 134.5 27t115.5 76t81.5 126t30.5 170q0 84 -31 168z" />
<glyph unicode="&#xd9;" horiz-adv-x="1589" d="M117 623v907h446v-903q0 -126 60 -193t168 -67q111 0 172 67t61 195v901h449v-907q0 -144 -47.5 -266t-134 -209.5t-215.5 -137t-285 -49.5q-207 0 -361 85.5t-233.5 234.5t-79.5 342zM391 2025l322 -376h321l-225 376h-418z" />
<glyph unicode="&#xda;" horiz-adv-x="1589" d="M117 623v907h446v-903q0 -126 60 -193t168 -67q111 0 172 67t61 195v901h449v-907q0 -144 -47.5 -266t-134 -209.5t-215.5 -137t-285 -49.5q-207 0 -361 85.5t-233.5 234.5t-79.5 342zM596 1649l225 376h418l-321 -376h-322z" />
<glyph unicode="&#xdb;" horiz-adv-x="1589" d="M117 623v907h446v-903q0 -126 60 -193t168 -67q111 0 172 67t61 195v901h449v-907q0 -144 -47.5 -266t-134 -209.5t-215.5 -137t-285 -49.5q-207 0 -361 85.5t-233.5 234.5t-79.5 342zM334 1653l307 372h299l317 -372h-362l-107 143l-102 -143h-352z" />
<glyph unicode="&#xdc;" horiz-adv-x="1589" d="M117 623v907h446v-903q0 -126 60 -193t168 -67q111 0 172 67t61 195v901h449v-907q0 -144 -47.5 -266t-134 -209.5t-215.5 -137t-285 -49.5q-207 0 -361 85.5t-233.5 234.5t-79.5 342zM348 1843q0 76 56 131.5t133 55.5q78 0 134 -55t56 -132q0 -76 -56 -131t-134 -55 q-77 0 -133 55t-56 131zM864 1843q0 77 55.5 132t133.5 55t133 -55t55 -132t-55 -131.5t-133 -54.5t-133.5 54.5t-55.5 131.5z" />
<glyph unicode="&#xdd;" horiz-adv-x="1570" d="M-8 1530h500l305 -553h8l301 553h473l-569 -946v-584h-447v582zM586 1649l225 376h418l-322 -376h-321z" />
<glyph unicode="&#xde;" horiz-adv-x="1406" d="M127 0v1530h446v-174h105q335 0 514.5 -153t179.5 -417q0 -93 -25.5 -179.5t-79.5 -162.5t-131.5 -132.5t-187 -89t-239.5 -32.5h-136v-190h-446zM573 586h156q82 0 137.5 48t55.5 134q0 89 -55.5 136.5t-141.5 47.5h-152v-366z" />
<glyph unicode="&#xdf;" horiz-adv-x="1509" d="M106 0v1030q0 313 173 478t475 165q259 0 412 -120t153 -308q0 -214 -160 -313v-4q153 -53 233.5 -165t80.5 -274q0 -229 -151 -370.5t-390 -141.5q-66 0 -139 10t-107 23v359q73 -25 143 -25q95 0 154 44t59 124q0 75 -54.5 120.5t-164.5 45.5h-127v283h27 q87 0 137.5 52.5t50.5 125.5q0 70 -48.5 118t-123.5 48q-81 0 -133.5 -53t-52.5 -146v-1106h-447z" />
<glyph unicode="&#xe0;" d="M55 573q0 133 43.5 250t114.5 196t162 124t186 45q223 0 354 -182l41 149h373v-1155h-373l-41 150q-131 -183 -354 -183q-95 0 -186 45t-162 123t-114.5 193t-43.5 245zM354 1651l322 -377h321l-225 377h-418zM498 578q0 -94 56.5 -158t145.5 -64q87 0 142 63t55 159 t-55 158.5t-142 62.5q-89 0 -145.5 -64.5t-56.5 -156.5z" />
<glyph unicode="&#xe1;" d="M55 573q0 133 43.5 250t114.5 196t162 124t186 45q223 0 354 -182l41 149h373v-1155h-373l-41 150q-131 -183 -354 -183q-95 0 -186 45t-162 123t-114.5 193t-43.5 245zM498 578q0 -94 56.5 -158t145.5 -64q87 0 142 63t55 159t-55 158.5t-142 62.5q-89 0 -145.5 -64.5 t-56.5 -156.5zM559 1274l225 377h418l-321 -377h-322z" />
<glyph unicode="&#xe2;" d="M55 573q0 133 43.5 250t114.5 196t162 124t186 45q223 0 354 -182l41 149h373v-1155h-373l-41 150q-131 -183 -354 -183q-95 0 -186 45t-162 123t-114.5 193t-43.5 245zM297 1278l307 373h299l318 -373h-363l-106 143l-103 -143h-352zM498 578q0 -94 56.5 -158t145.5 -64 q87 0 142 63t55 159t-55 158.5t-142 62.5q-89 0 -145.5 -64.5t-56.5 -156.5z" />
<glyph unicode="&#xe3;" d="M55 573q0 133 43.5 250t114.5 196t162 124t186 45q223 0 354 -182l41 149h373v-1155h-373l-41 150q-131 -183 -354 -183q-95 0 -186 45t-162 123t-114.5 193t-43.5 245zM260 1286q-10 181 71.5 275t225.5 94q52 0 104 -17.5t87 -39t79 -39t82 -17.5q52 0 77.5 32t25.5 77 h243q10 -181 -72 -275t-227 -94q-51 0 -102.5 17.5t-86.5 39t-79 39t-82 17.5q-51 0 -76.5 -32t-25.5 -77h-244zM498 578q0 -94 56.5 -158t145.5 -64q87 0 142 63t55 159t-55 158.5t-142 62.5q-89 0 -145.5 -64.5t-56.5 -156.5z" />
<glyph unicode="&#xe4;" d="M55 573q0 133 43.5 250t114.5 196t162 124t186 45q223 0 354 -182l41 149h373v-1155h-373l-41 150q-131 -183 -354 -183q-95 0 -186 45t-162 123t-114.5 193t-43.5 245zM311 1468q0 76 56 131.5t133 55.5q78 0 134 -55t56 -132q0 -76 -56 -131t-134 -55q-77 0 -133 55 t-56 131zM498 578q0 -94 56.5 -158t145.5 -64q87 0 142 63t55 159t-55 158.5t-142 62.5q-89 0 -145.5 -64.5t-56.5 -156.5zM827 1468q0 77 55.5 132t133.5 55t133 -55t55 -132t-55 -131.5t-133 -54.5t-133.5 54.5t-55.5 131.5z" />
<glyph unicode="&#xe5;" d="M55 573q0 133 43.5 250t114.5 196t162 124t186 45q223 0 354 -182l41 149h373v-1155h-373l-41 150q-131 -183 -354 -183q-95 0 -186 45t-162 123t-114.5 193t-43.5 245zM475 1526q0 113 81.5 185.5t201.5 72.5q123 0 200.5 -72t77.5 -186q0 -107 -78.5 -180.5 t-199.5 -73.5q-118 0 -200.5 74t-82.5 180zM498 578q0 -94 56.5 -158t145.5 -64q87 0 142 63t55 159t-55 158.5t-142 62.5q-89 0 -145.5 -64.5t-56.5 -156.5zM651 1526q0 -43 33.5 -71t73.5 -28q39 0 71.5 28t32.5 71q0 49 -31.5 74.5t-72.5 25.5q-42 0 -74.5 -25.5 t-32.5 -74.5z" />
<glyph unicode="&#xe6;" horiz-adv-x="1943" d="M47 352q0 84 38.5 151.5t118 117.5t215 70.5t314.5 4.5v6q0 65 -50 103.5t-177 38.5q-77 0 -176.5 -21t-177.5 -57v326q167 96 426 96q237 0 393 -139q78 68 158 103.5t190 35.5q122 0 224 -38.5t177 -111.5t116.5 -186t41.5 -256q0 -71 -10 -133h-701q7 -74 86 -118 t201 -44q186 0 348 76v-324q-88 -40 -196 -63t-197 -23q-166 0 -272.5 42.5t-192.5 135.5q-170 -176 -430 -176q-210 0 -338.5 106.5t-128.5 276.5zM451 377q0 -46 31.5 -81.5t88.5 -35.5q67 0 113.5 46t46.5 114v74q-145 16 -212.5 -16t-67.5 -101zM1165 698h303 q2 68 -38 113t-111 45q-63 0 -108 -44t-46 -114z" />
<glyph unicode="&#xe7;" horiz-adv-x="1112" d="M55 580q0 177 84 317t227 215.5t316 75.5q203 0 354 -80v-389q-135 80 -278 80q-114 0 -187 -60.5t-73 -160.5t73 -161t187 -61q159 0 278 82v-389q-87 -46 -211 -69q-16 -219 -139 -367h-403q184 201 206 381q-195 57 -314.5 213.5t-119.5 372.5z" />
<glyph unicode="&#xe8;" horiz-adv-x="1282" d="M55 575q0 181 80 322t215 216t299 75q254 0 411 -154.5t157 -437.5q0 -65 -11 -133h-712q26 -69 100 -110.5t188 -41.5q191 0 357 76v-334q-90 -40 -199.5 -63t-200.5 -23q-162 0 -292.5 47t-215.5 129t-130.5 192.5t-45.5 239.5zM256 1651l322 -377h321l-225 377h-418z M485 713h318q-2 56 -45 96.5t-109 40.5t-112 -40t-52 -97z" />
<glyph unicode="&#xe9;" horiz-adv-x="1282" d="M55 575q0 181 80 322t215 216t299 75q254 0 411 -154.5t157 -437.5q0 -65 -11 -133h-712q26 -69 100 -110.5t188 -41.5q191 0 357 76v-334q-90 -40 -199.5 -63t-200.5 -23q-162 0 -292.5 47t-215.5 129t-130.5 192.5t-45.5 239.5zM461 1274l225 377h418l-322 -377h-321z M485 713h318q-2 56 -45 96.5t-109 40.5t-112 -40t-52 -97z" />
<glyph unicode="&#xea;" horiz-adv-x="1282" d="M55 575q0 181 80 322t215 216t299 75q254 0 411 -154.5t157 -437.5q0 -65 -11 -133h-712q26 -69 100 -110.5t188 -41.5q191 0 357 76v-334q-90 -40 -199.5 -63t-200.5 -23q-162 0 -292.5 47t-215.5 129t-130.5 192.5t-45.5 239.5zM199 1278l307 373h299l317 -373h-362 l-107 143l-102 -143h-352zM485 713h318q-2 56 -45 96.5t-109 40.5t-112 -40t-52 -97z" />
<glyph unicode="&#xeb;" horiz-adv-x="1282" d="M55 575q0 181 80 322t215 216t299 75q254 0 411 -154.5t157 -437.5q0 -65 -11 -133h-712q26 -69 100 -110.5t188 -41.5q191 0 357 76v-334q-90 -40 -199.5 -63t-200.5 -23q-162 0 -292.5 47t-215.5 129t-130.5 192.5t-45.5 239.5zM213 1468q0 76 55.5 131.5t132.5 55.5 q78 0 134.5 -55.5t56.5 -131.5t-56.5 -131t-134.5 -55q-77 0 -132.5 55t-55.5 131zM485 713h318q-2 56 -45 96.5t-109 40.5t-112 -40t-52 -97zM729 1468q0 77 55.5 132t133.5 55t133 -55t55 -132t-55 -131.5t-133 -54.5t-133.5 54.5t-55.5 131.5z" />
<glyph unicode="&#xec;" horiz-adv-x="651" d="M-78 1651l322 -377h321l-225 377h-418zM106 0v1155h439v-1155h-439z" />
<glyph unicode="&#xed;" horiz-adv-x="651" d="M106 0v1155h439v-1155h-439zM127 1274l225 377h418l-321 -377h-322z" />
<glyph unicode="&#xee;" horiz-adv-x="651" d="M-135 1278l307 373h299l317 -373h-362l-107 143l-102 -143h-352zM106 0v1155h439v-1155h-439z" />
<glyph unicode="&#xef;" horiz-adv-x="651" d="M-121 1468q0 76 56 131.5t133 55.5q78 0 134 -55t56 -132q0 -76 -56 -131t-134 -55q-77 0 -133 55t-56 131zM106 0v1155h439v-1155h-439zM395 1468q0 77 55.5 132t133.5 55t133 -55t55 -132t-55 -131.5t-133 -54.5t-133.5 54.5t-55.5 131.5z" />
<glyph unicode="&#xf0;" horiz-adv-x="1374" d="M55 565q0 129 43.5 238.5t116 181.5t164.5 112t190 40q140 0 242 -88l6 2q-53 114 -166 254l-176 -66l-63 162l123 45q-71 82 -191 205h479l68 -78l172 61l59 -153l-123 -47q166 -223 243 -416t77 -383q0 -154 -49 -281t-134.5 -211t-201 -130t-248.5 -46 q-172 0 -316.5 77t-229.5 214.5t-85 306.5zM498 575q0 -96 56.5 -157.5t131.5 -61.5t131.5 61.5t56.5 157.5t-56 156t-132 60q-74 0 -131 -60t-57 -156z" />
<glyph unicode="&#xf1;" horiz-adv-x="1341" d="M106 0v1155h340l43 -151h9q55 85 142.5 134.5t199.5 49.5q189 0 294 -107.5t105 -302.5v-778h-438v664q0 135 -121 135q-62 0 -98.5 -36t-36.5 -93v-670h-439zM182 1286q-10 181 71.5 275t225.5 94q52 0 104 -17.5t87 -39t79 -39t82 -17.5q52 0 77.5 32t25.5 77h244 q10 -181 -72 -275t-227 -94q-51 0 -102.5 17.5t-87 39t-79.5 39t-82 17.5q-51 0 -76.5 -32t-25.5 -77h-244z" />
<glyph unicode="&#xf2;" horiz-adv-x="1372" d="M55 580q0 180 85.5 320t228.5 214t317 74q177 0 320 -74t227 -214t84 -320t-84 -320.5t-227.5 -216.5t-319.5 -76q-130 0 -246 44.5t-201 123.5t-134.5 194.5t-49.5 250.5zM401 1651l322 -377h321l-225 377h-418zM498 580q0 -101 56 -162.5t132 -61.5t132 61.5t56 162.5 t-55.5 160t-132.5 59q-75 0 -131.5 -59.5t-56.5 -159.5z" />
<glyph unicode="&#xf3;" horiz-adv-x="1372" d="M55 580q0 180 85.5 320t228.5 214t317 74q177 0 320 -74t227 -214t84 -320t-84 -320.5t-227.5 -216.5t-319.5 -76q-130 0 -246 44.5t-201 123.5t-134.5 194.5t-49.5 250.5zM369 1274l225 377h418l-322 -377h-321zM498 580q0 -101 56 -162.5t132 -61.5t132 61.5t56 162.5 t-55.5 160t-132.5 59q-75 0 -131.5 -59.5t-56.5 -159.5z" />
<glyph unicode="&#xf4;" horiz-adv-x="1372" d="M55 580q0 180 85.5 320t228.5 214t317 74q177 0 320 -74t227 -214t84 -320t-84 -320.5t-227.5 -216.5t-319.5 -76q-130 0 -246 44.5t-201 123.5t-134.5 194.5t-49.5 250.5zM223 1278l307 373h299l318 -373h-363l-106 143l-103 -143h-352zM498 580q0 -101 56 -162.5 t132 -61.5t132 61.5t56 162.5t-55.5 160t-132.5 59q-75 0 -131.5 -59.5t-56.5 -159.5z" />
<glyph unicode="&#xf5;" horiz-adv-x="1372" d="M55 580q0 180 85.5 320t228.5 214t317 74q177 0 320 -74t227 -214t84 -320t-84 -320.5t-227.5 -216.5t-319.5 -76q-130 0 -246 44.5t-201 123.5t-134.5 194.5t-49.5 250.5zM172 1286q-10 181 71.5 275t225.5 94q52 0 104 -17.5t87 -39t79 -39t82 -17.5q52 0 77.5 32 t25.5 77h243q10 -181 -72 -275t-227 -94q-51 0 -102.5 17.5t-86.5 39t-79 39t-82 17.5q-51 0 -76.5 -32t-25.5 -77h-244zM498 580q0 -101 56 -162.5t132 -61.5t132 61.5t56 162.5t-55.5 160t-132.5 59q-75 0 -131.5 -59.5t-56.5 -159.5z" />
<glyph unicode="&#xf6;" horiz-adv-x="1372" d="M55 580q0 180 85.5 320t228.5 214t317 74q177 0 320 -74t227 -214t84 -320t-84 -320.5t-227.5 -216.5t-319.5 -76q-130 0 -246 44.5t-201 123.5t-134.5 194.5t-49.5 250.5zM240 1468q0 76 55.5 131.5t132.5 55.5q78 0 134 -55t56 -132q0 -76 -56 -131t-134 -55 q-77 0 -132.5 55t-55.5 131zM498 580q0 -101 56 -162.5t132 -61.5t132 61.5t56 162.5t-55.5 160t-132.5 59q-75 0 -131.5 -59.5t-56.5 -159.5zM756 1468q0 77 55 132t133 55t133.5 -55t55.5 -132t-55.5 -131.5t-133.5 -54.5t-133 54.5t-55 131.5z" />
<glyph unicode="&#xf7;" horiz-adv-x="1476" d="M125 592v346h1227v-346h-1227zM508 315q0 95 67 162.5t162 67.5t162.5 -67.5t67.5 -162.5t-67.5 -162t-162.5 -67t-162 67t-67 162zM508 1214q0 95 67 162.5t162 67.5t162.5 -67.5t67.5 -162.5t-67.5 -162t-162.5 -67t-162 67t-67 162z" />
<glyph unicode="&#xf8;" horiz-adv-x="1372" d="M55 580q0 135 49.5 249.5t134.5 192.5t200 122t245 44q193 0 346 -92l96 100l156 -152l-90 -92q121 -159 121 -372q0 -180 -84 -320.5t-227 -216.5t-318 -76q-192 0 -348 92l-100 -104l-156 149l96 101q-121 159 -121 375zM489 580q0 -24 3 -45l245 256q-36 8 -53 8 q-79 0 -137 -58.5t-58 -160.5zM627 362q24 -8 57 -8q78 0 136.5 61t58.5 165q0 6 -5 41z" />
<glyph unicode="&#xf9;" horiz-adv-x="1325" d="M96 487v668h439v-661q0 -138 127 -138q129 0 129 138v661h438v-668q0 -230 -153 -375t-414 -145t-413.5 145t-152.5 375zM258 1651l322 -377h321l-225 377h-418z" />
<glyph unicode="&#xfa;" horiz-adv-x="1325" d="M96 487v668h439v-661q0 -138 127 -138q129 0 129 138v661h438v-668q0 -230 -153 -375t-414 -145t-413.5 145t-152.5 375zM463 1274l225 377h418l-322 -377h-321z" />
<glyph unicode="&#xfb;" horiz-adv-x="1325" d="M96 487v668h439v-661q0 -138 127 -138q129 0 129 138v661h438v-668q0 -230 -153 -375t-414 -145t-413.5 145t-152.5 375zM201 1278l307 373h299l317 -373h-362l-107 143l-102 -143h-352z" />
<glyph unicode="&#xfc;" horiz-adv-x="1325" d="M96 487v668h439v-661q0 -138 127 -138q129 0 129 138v661h438v-668q0 -230 -153 -375t-414 -145t-413.5 145t-152.5 375zM215 1468q0 76 55.5 131.5t132.5 55.5q78 0 134.5 -55.5t56.5 -131.5t-56.5 -131t-134.5 -55q-77 0 -132.5 55t-55.5 131zM731 1468q0 77 55.5 132 t133.5 55t133 -55t55 -132t-55 -131.5t-133 -54.5t-133.5 54.5t-55.5 131.5z" />
<glyph unicode="&#xfd;" horiz-adv-x="1323" d="M4 1155h467l197 -670h8l196 670h447l-635 -1585h-434l194 455zM463 1274l225 377h418l-322 -377h-321z" />
<glyph unicode="&#xfe;" horiz-adv-x="1429" d="M106 -430v2081h439v-639q55 76 143.5 117.5t190.5 41.5q212 0 353.5 -165.5t141.5 -427.5t-141.5 -428t-353.5 -166q-102 0 -190.5 41.5t-143.5 117.5v-573h-439zM545 578q0 -95 53 -150t137 -55q83 0 137 56t54 149q0 95 -53.5 149.5t-137.5 54.5t-137 -54.5t-53 -149.5 z" />
<glyph unicode="&#xff;" horiz-adv-x="1323" d="M4 1155h467l197 -670h8l196 670h447l-635 -1585h-434l194 455zM215 1468q0 76 55.5 131.5t132.5 55.5q78 0 134.5 -55.5t56.5 -131.5t-56.5 -131t-134.5 -55q-77 0 -132.5 55t-55.5 131zM731 1468q0 77 55.5 132t133.5 55t133 -55t55 -132t-55 -131.5t-133 -54.5 t-133.5 54.5t-55.5 131.5z" />
<glyph unicode="&#x152;" horiz-adv-x="2103" d="M66 760q0 172 62.5 319.5t168 247t245.5 155.5t294 56q29 0 167.5 -4t163.5 -4h820v-404h-570v-178h510v-360h-510v-185h570v-403h-818q-23 0 -164.5 -8t-168.5 -8q-154 0 -294 56t-245.5 155t-168 246t-62.5 319zM516 760q0 -111 52 -197.5t129 -129t161 -42.5 q65 0 113 10v715q-44 12 -113 12q-62 0 -122.5 -25.5t-110 -71t-79.5 -116.5t-30 -155z" />
<glyph unicode="&#x153;" horiz-adv-x="2086" d="M55 580q0 135 49.5 249.5t134.5 192.5t200 122t245 44q133 0 225 -33t181 -98q82 64 169 97.5t203 33.5q122 0 224 -38.5t177 -111.5t116.5 -186t41.5 -256q0 -71 -10 -133h-694q26 -69 97.5 -110.5t182.5 -41.5q187 0 349 76v-334q-88 -40 -196.5 -63t-197.5 -23 q-274 0 -458 139q-194 -139 -410 -139q-175 0 -318 76t-227 217t-84 320zM489 580q0 -104 57.5 -165t137.5 -61q78 0 136.5 61t58.5 165q0 102 -58 160.5t-137 58.5t-137 -58.5t-58 -160.5zM1309 713h299q-2 56 -42.5 96.5t-103.5 40.5q-61 0 -104 -40t-49 -97z" />
<glyph unicode="&#x178;" horiz-adv-x="1570" d="M-8 1530h500l305 -553h8l301 553h473l-569 -946v-584h-447v582zM338 1843q0 76 55.5 131.5t132.5 55.5q78 0 134.5 -55.5t56.5 -131.5t-56.5 -131t-134.5 -55q-77 0 -132.5 55t-55.5 131zM854 1843q0 77 55 132t133 55t133.5 -55t55.5 -132t-55.5 -131.5t-133.5 -54.5 t-133 54.5t-55 131.5z" />
<glyph unicode="&#x2c6;" horiz-adv-x="1124" d="M92 1278l307 373h299l318 -373h-363l-106 143l-103 -143h-352z" />
<glyph unicode="&#x2dc;" horiz-adv-x="999" d="M-14 1286q-10 181 71.5 275t225.5 94q52 0 104 -17.5t87 -39t79 -39t82 -17.5q51 0 76.5 32t25.5 77h244q10 -181 -72 -275t-227 -94q-51 0 -102.5 17.5t-86.5 39t-79 39t-82 17.5q-52 0 -77.5 -32t-25.5 -77h-243z" />
<glyph unicode="&#x2000;" horiz-adv-x="1079" />
<glyph unicode="&#x2001;" horiz-adv-x="2159" />
<glyph unicode="&#x2002;" horiz-adv-x="1079" />
<glyph unicode="&#x2003;" horiz-adv-x="2159" />
<glyph unicode="&#x2004;" horiz-adv-x="719" />
<glyph unicode="&#x2005;" horiz-adv-x="539" />
<glyph unicode="&#x2006;" horiz-adv-x="359" />
<glyph unicode="&#x2007;" horiz-adv-x="359" />
<glyph unicode="&#x2008;" horiz-adv-x="269" />
<glyph unicode="&#x2009;" horiz-adv-x="431" />
<glyph unicode="&#x200a;" horiz-adv-x="119" />
<glyph unicode="&#x2010;" horiz-adv-x="862" d="M106 492v319h650v-319h-650z" />
<glyph unicode="&#x2011;" horiz-adv-x="862" d="M106 492v319h650v-319h-650z" />
<glyph unicode="&#x2012;" horiz-adv-x="862" d="M106 492v319h650v-319h-650z" />
<glyph unicode="&#x2013;" horiz-adv-x="1001" d="M106 492v319h789v-319h-789z" />
<glyph unicode="&#x2014;" horiz-adv-x="1603" d="M106 492v319h1391v-319h-1391z" />
<glyph unicode="&#x2018;" horiz-adv-x="624" d="M98 854v94q0 247 156 582h307q-45 -170 -62.5 -289.5t-17.5 -255.5v-131h-383z" />
<glyph unicode="&#x2019;" horiz-adv-x="624" d="M63 854q45 170 62.5 289.5t17.5 255.5v131h383v-94q0 -250 -155 -582h-308z" />
<glyph unicode="&#x201a;" horiz-adv-x="624" d="M63 -274q45 170 62.5 289t17.5 255v131h383v-94q0 -249 -155 -581h-308z" />
<glyph unicode="&#x201c;" horiz-adv-x="1177" d="M98 854v94q0 247 156 582h307q-45 -170 -62.5 -289.5t-17.5 -255.5v-131h-383zM651 854v94q0 247 156 582h307q-45 -170 -62.5 -289.5t-17.5 -255.5v-131h-383z" />
<glyph unicode="&#x201d;" horiz-adv-x="1177" d="M63 854q45 170 62.5 289.5t17.5 255.5v131h383v-94q0 -250 -155 -582h-308zM616 854q45 170 62.5 289.5t17.5 255.5v131h383v-94q0 -250 -155 -582h-308z" />
<glyph unicode="&#x201e;" horiz-adv-x="1177" d="M63 -274q45 170 62.5 289t17.5 255v131h383v-94q0 -249 -155 -581h-308zM616 -274q45 170 62.5 289t17.5 255v131h383v-94q0 -249 -155 -581h-308z" />
<glyph unicode="&#x2022;" horiz-adv-x="819" d="M133 760q0 115 80.5 195.5t196.5 80.5t196 -80t80 -196t-80.5 -196.5t-195.5 -80.5q-116 0 -196.5 80.5t-80.5 196.5z" />
<glyph unicode="&#x2026;" horiz-adv-x="2191" d="M123 213q0 95 67 162t162 67t162.5 -67t67.5 -162t-67.5 -162t-162.5 -67t-162 67t-67 162zM866 213q0 95 67.5 162t162.5 67t162 -67t67 -162t-67 -162t-162 -67t-162.5 67t-67.5 162zM1610 213q0 95 67 162t162 67t162 -67t67 -162t-67 -162t-162 -67t-162 67t-67 162z " />
<glyph unicode="&#x202f;" horiz-adv-x="431" />
<glyph unicode="&#x2039;" horiz-adv-x="952" d="M143 467v221l666 504v-401l-311 -213l311 -213v-402z" />
<glyph unicode="&#x203a;" horiz-adv-x="952" d="M143 -37v402l312 213l-312 213v401l666 -504v-221z" />
<glyph unicode="&#x205f;" horiz-adv-x="539" />
<glyph unicode="&#x20ac;" horiz-adv-x="1392" d="M88 502v229h150v33v27h-150v229h186q78 249 286 399t472 150q154 0 244 -43v-408q-97 41 -195 41q-229 0 -331 -139h360v-229h-436v-27v-33h436v-229h-354q105 -131 325 -131q98 0 195 41v-408q-90 -43 -244 -43q-262 0 -469.5 147.5t-286.5 393.5h-188z" />
<glyph unicode="&#x2122;" horiz-adv-x="2072" d="M51 1223v307h752v-307h-225v-574h-304v574h-223zM838 647l129 883h336l135 -406h2l129 406h323l129 -883h-303l-39 447h-6l-135 -447h-219l-125 449h-6l-49 -449h-301z" />
<glyph unicode="&#x25fc;" horiz-adv-x="1157" d="M0 0v1157h1157v-1157h-1157z" />
</font>
</defs>
</svg>
