<?xml version="1.0" standalone="no"?>
<!DOCTYPE svg PUBLIC "-//W3C//DTD SVG 1.1//EN" "http://www.w3.org/Graphics/SVG/1.1/DTD/svg11.dtd" >
<svg xmlns="http://www.w3.org/2000/svg" xmlns:xlink="http://www.w3.org/1999/xlink" version="1.1">
<metadata></metadata>
<defs>
<font id="tp_heroextrabold_italic" horiz-adv-x="1452" >
<font-face units-per-em="2048" ascent="1638" descent="-410" />
<missing-glyph horiz-adv-x="561" />
<glyph unicode="&#xfb01;" horiz-adv-x="1595" d="M90 825l47 322h162l14 86q15 92 52 168t98.5 137.5t156 96t214.5 34.5q116 0 233 -31l-49 -317q-82 14 -129 14q-171 0 -189 -129l-10 -59h264l-49 -322h-264l-125 -825h-391l125 825h-160zM997 0l174 1147h392l-174 -1147h-392zM1206 1464q0 85 60.5 144t146.5 59 t146.5 -59t60.5 -144q0 -86 -60 -145t-147 -59t-147 59t-60 145z" />
<glyph horiz-adv-x="0" />
<glyph horiz-adv-x="682" />
<glyph unicode="&#xd;" horiz-adv-x="0" />
<glyph unicode=" "  horiz-adv-x="561" />
<glyph unicode="&#x09;" horiz-adv-x="561" />
<glyph unicode="&#xa0;" horiz-adv-x="561" />
<glyph unicode="!" horiz-adv-x="702" d="M90 195q0 88 60.5 149.5t148.5 61.5t149.5 -61.5t61.5 -149.5t-61.5 -148.5t-149.5 -60.5t-148.5 60.5t-60.5 148.5zM207 557l78 971h387l-207 -971h-258z" />
<glyph unicode="&#x22;" horiz-adv-x="944" d="M150 885l108 643h328l-246 -643h-190zM590 885l108 643h330l-248 -643h-190z" />
<glyph unicode="#" horiz-adv-x="1263" d="M6 463l27 192h246l71 228h-211l29 192h235l136 453h211l-138 -453h217l136 453h213l-136 -453h218l-29 -192h-246l-67 -228h208l-28 -192h-238l-137 -463h-211l137 463h-217l-135 -463h-213l139 463h-217zM492 655h215l69 228h-217z" />
<glyph unicode="$" horiz-adv-x="1302" d="M88 117l64 401q64 -79 177.5 -130.5t227.5 -51.5q92 0 151.5 41t59.5 104q0 35 -30.5 64t-78.5 51.5t-106.5 47t-117.5 57.5t-107 74t-78.5 106t-30.5 145q0 168 110 301.5t310 181.5l25 158h315l-23 -143q150 -22 279 -92l-59 -373q-64 55 -163 90t-194 35 q-85 0 -137.5 -36t-52.5 -87q0 -32 30.5 -59t78.5 -48.5t106.5 -45t117.5 -56.5t107 -74t78.5 -105.5t30.5 -144.5q0 -193 -117 -334t-328 -186l-24 -155h-316l23 145q-199 28 -328 119z" />
<glyph unicode="%" horiz-adv-x="2117" d="M162 1104q0 198 136.5 332.5t340.5 134.5q97 0 180 -46t134 -133.5t51 -197.5q0 -196 -132.5 -329.5t-336.5 -133.5q-154 0 -263.5 105.5t-109.5 267.5zM344 0l1147 1528h358l-1147 -1528h-358zM444 1122q0 -54 31 -90.5t82 -36.5q72 0 119 54.5t47 128.5 q0 54 -32.5 90.5t-86.5 36.5q-68 0 -114 -55.5t-46 -127.5zM1184 334q0 198 136.5 332.5t340.5 134.5q150 0 257 -106t107 -273q0 -195 -132.5 -328t-336.5 -133q-154 0 -263 105.5t-109 267.5zM1466 352q0 -54 31 -90.5t82 -36.5q72 0 119 54.5t47 128.5q0 54 -32.5 89 t-86.5 35q-68 0 -114 -54.5t-46 -125.5z" />
<glyph unicode="&#x26;" horiz-adv-x="1619" d="M43 393q0 144 83.5 247.5t276.5 190.5q-72 86 -105.5 156.5t-33.5 153.5q0 179 145 299.5t379 120.5q112 0 203 -31t149.5 -83.5t90 -120.5t31.5 -144q0 -65 -17 -118.5t-59.5 -108.5t-122 -105t-195.5 -96l170 -203l207 270h359l-379 -491l280 -330h-397l-94 113 q-192 -144 -447 -144q-123 0 -223 33.5t-165.5 91.5t-100.5 134.5t-35 164.5zM403 440q0 -70 54.5 -118t150.5 -48q111 0 213 64l-254 301q-96 -50 -130 -97t-34 -102zM604 1124q0 -38 21 -75t77 -101q139 55 183.5 94.5t44.5 98.5q0 49 -40.5 85t-115.5 36 q-74 0 -122 -39.5t-48 -98.5z" />
<glyph unicode="'" horiz-adv-x="501" d="M154 885l108 643h330l-248 -643h-190z" />
<glyph unicode="(" horiz-adv-x="880" d="M104 483q0 295 127 559.5t361 485.5h393q-68 -61 -132 -132.5t-134.5 -174t-122 -210.5t-85.5 -244t-34 -273q0 -204 66 -396t176 -354h-357q-119 156 -188.5 347.5t-69.5 391.5z" />
<glyph unicode=")" horiz-adv-x="880" d="M-113 -256q68 61 133 132.5t135.5 174t122 210.5t85.5 244t34 273q0 206 -65.5 398t-175.5 352h356q118 -154 188 -346t70 -391q0 -297 -126.5 -561t-360.5 -486h-396z" />
<glyph unicode="*" horiz-adv-x="1222" d="M184 1167l138 308l299 -177l-19 351h322l-123 -351l350 170l68 -301l-383 -39l239 -237l-280 -191l-119 324l-207 -326l-227 193l299 237z" />
<glyph unicode="+" d="M109 612v303h450v469h320v-469h467v-303h-467v-471h-320v471h-450z" />
<glyph unicode="," horiz-adv-x="671" d="M-29 -274q92 154 132.5 266t43.5 235q0 72 -14 154h344q0 -9 1 -29t1 -33q-3 -148 -69.5 -288t-200.5 -305h-238z" />
<glyph unicode="-" horiz-adv-x="817" d="M88 506l41 291h629l-43 -291h-627z" />
<glyph unicode="." horiz-adv-x="671" d="M68 195q0 88 61.5 149.5t149.5 61.5q87 0 147.5 -61.5t60.5 -149.5t-60 -148.5t-148 -60.5t-149.5 60.5t-61.5 148.5z" />
<glyph unicode="/" horiz-adv-x="874" d="M-59 -274l698 2078h356l-702 -2078h-352z" />
<glyph unicode="0" horiz-adv-x="1482" d="M117 621q0 257 95 474t262 344.5t368 127.5q251 0 407 -181.5t156 -478.5q0 -257 -95 -473.5t-263 -343.5t-371 -127q-248 0 -403.5 181.5t-155.5 476.5zM508 629q0 -147 49.5 -223t140.5 -76q87 0 160 78t114.5 208.5t41.5 282.5q0 145 -51 223t-144 78 q-85 0 -157 -78.5t-113 -209.5t-41 -283z" />
<glyph unicode="1" horiz-adv-x="991" d="M141 897l60 391l727 258h26l-237 -1546h-393l157 1024z" />
<glyph unicode="2" horiz-adv-x="1304" d="M-27 0l2 23q541 537 693.5 713.5t152.5 295.5q0 82 -53 126t-150 44q-187 0 -409 -170l59 389q199 146 441 146q142 0 258 -58t183 -162.5t67 -234.5q0 -162 -122.5 -341.5t-377.5 -416.5h471l-51 -354h-1164z" />
<glyph unicode="3" horiz-adv-x="1275" d="M27 98l55 359q88 -67 202.5 -104.5t223.5 -37.5q119 0 189.5 47.5t70.5 126.5q0 144 -254 144h-207l43 291h219q122 0 188 45t66 114q0 58 -52 97t-159 39q-92 0 -196.5 -27.5t-186.5 -69.5l54 346q77 47 198 73t228 26q120 0 219 -34.5t162.5 -92.5t98 -132t34.5 -155 q0 -115 -73 -216t-192 -155v-4q211 -104 211 -323q0 -211 -177.5 -351.5t-465.5 -140.5q-131 0 -262 33.5t-237 101.5z" />
<glyph unicode="4" horiz-adv-x="1454" d="M29 313l32 228l881 987h350l-139 -899h238l-48 -316h-237l-49 -313h-367l47 313h-708zM467 631l321 -2l66 440z" />
<glyph unicode="5" horiz-adv-x="1273" d="M39 90l59 371q73 -70 173.5 -110t195.5 -40q139 0 217 58t78 145q0 170 -281 170q-126 0 -268 -43l-35 18l242 869h821l-59 -357h-531l-67 -206q38 10 106 10q131 0 239 -51t175 -152t67 -235q0 -90 -27.5 -174.5t-83 -157.5t-134 -127.5t-188 -85.5t-236.5 -31 q-264 0 -463 129z" />
<glyph unicode="6" horiz-adv-x="1409" d="M78 489q0 268 295 560l483 479h467v-6l-502 -502q63 -8 142 -35q156 -50 246.5 -164t90.5 -270q0 -115 -48 -220.5t-132 -185.5t-208 -128t-267 -48q-252 0 -409.5 149t-157.5 371zM442 508q0 -86 59 -143.5t158 -57.5q110 0 188.5 73t78.5 185q0 89 -68.5 149t-171.5 60 q-57 0 -106 -14q-138 -116 -138 -252z" />
<glyph unicode="7" horiz-adv-x="1286" d="M45 0l756 1171h-598l55 357h1143l-4 -31l-928 -1497h-424z" />
<glyph unicode="8" horiz-adv-x="1366" d="M63 401q0 128 80 231t217 163l2 4q-163 125 -163 301q0 88 41 171.5t114.5 149.5t186.5 106t245 40q239 0 382 -119.5t143 -300.5q0 -112 -71.5 -204.5t-186.5 -149.5l-2 -5q101 -57 155 -142t54 -189q0 -95 -43 -183t-121.5 -157.5t-200 -111.5t-266.5 -42 q-132 0 -241.5 36.5t-179 98t-107.5 140t-38 163.5zM422 432q0 -69 56 -115.5t163 -46.5q115 0 183.5 59t68.5 136q0 73 -55 120.5t-158 47.5q-116 0 -187 -61t-71 -140zM539 1069q0 -68 49 -114t139 -46q101 0 164 59t63 132q0 64 -48.5 109.5t-139.5 45.5 q-99 0 -163 -55.5t-64 -130.5z" />
<glyph unicode="9" horiz-adv-x="1396" d="M147 0v6l488 492q-82 6 -139 26q-154 48 -247 167.5t-93 277.5q0 117 48.5 225.5t133 191t208.5 132t267 49.5q125 0 231 -42t178.5 -113.5t113 -169t40.5 -206.5q0 -270 -297 -567l-463 -469h-469zM532 961q0 -95 65.5 -156.5t168.5 -61.5q59 0 102 15q144 125 144 258 q0 89 -59 148t-156 59q-109 0 -187 -75t-78 -187z" />
<glyph unicode=":" horiz-adv-x="671" d="M68 195q0 88 61.5 149.5t149.5 61.5q87 0 147.5 -61.5t60.5 -149.5t-60 -148.5t-148 -60.5t-149.5 60.5t-61.5 148.5zM170 862q0 88 61.5 149.5t149.5 61.5t149.5 -61.5t61.5 -149.5t-61.5 -148.5t-149.5 -60.5t-149.5 60.5t-61.5 148.5z" />
<glyph unicode=";" horiz-adv-x="671" d="M-29 -274q92 154 132.5 266t43.5 235q0 72 -14 154h344q0 -9 1 -29t1 -33q-3 -148 -69.5 -288t-200.5 -305h-238zM170 862q0 88 61.5 149.5t149.5 61.5t149.5 -61.5t61.5 -149.5t-61.5 -148.5t-149.5 -60.5t-149.5 60.5t-61.5 148.5z" />
<glyph unicode="&#x3c;" d="M154 586l1126 -447v367l-672 258l672 258v367l-1126 -447v-356z" />
<glyph unicode="=" d="M125 381v303h1200v-303h-1200zM125 844v301h1200v-301h-1200z" />
<glyph unicode="&#x3e;" d="M172 139l1126 447v356l-1126 447v-367l672 -258l-672 -258v-367z" />
<glyph unicode="?" horiz-adv-x="1105" d="M168 1108l49 360q83 44 189.5 71.5t211.5 27.5q123 0 220 -34t155 -91t87.5 -126t29.5 -145q0 -80 -28 -151.5t-91 -145.5t-139 -141t-199 -162h-325q34 35 84 84.5t74.5 74t60.5 61.5t52.5 56.5t39.5 47.5t32.5 46.5t20 42t14 44.5t3.5 45q0 60 -46 105t-135 45 q-87 0 -187 -32.5t-173 -82.5zM213 195q0 88 61.5 149.5t149.5 61.5t149.5 -61.5t61.5 -149.5t-61.5 -148.5t-149.5 -60.5t-149.5 60.5t-61.5 148.5z" />
<glyph unicode="@" horiz-adv-x="2037" d="M90 516q0 213 82 399t221 315.5t326.5 204t394.5 74.5q177 0 333.5 -50t273 -141.5t184 -228.5t67.5 -301q0 -188 -83.5 -345.5t-235.5 -251t-340 -93.5h-123l-4 133q-107 -157 -277 -157q-148 0 -247 108.5t-99 306.5q0 224 127.5 377.5t310.5 153.5q85 0 157 -41 t110 -113l47 129h272l-98 -649q102 55 163.5 163.5t61.5 240.5q0 98 -33.5 181t-90 140.5t-132.5 97.5t-160.5 59t-173.5 19q-202 0 -369 -91.5t-264.5 -256.5t-97.5 -369q0 -215 93.5 -364t256 -220t381.5 -71q193 0 326 43l-39 -258q-154 -41 -303 -41q-225 0 -411.5 59 t-321.5 171t-210 282.5t-75 384.5zM887 516q0 -78 39 -124t106 -46q84 0 137.5 68t53.5 161q0 76 -40 124.5t-108 48.5q-83 0 -135.5 -69.5t-52.5 -162.5z" />
<glyph unicode="A" horiz-adv-x="1599" d="M-90 0l823 1528h467l316 -1528h-404l-61 332h-539l-170 -332h-432zM680 655h311l-82 447z" />
<glyph unicode="B" horiz-adv-x="1392" d="M55 0l234 1528h538q254 0 388.5 -102t134.5 -271q0 -122 -69.5 -218t-178.5 -157q79 -34 137.5 -115.5t58.5 -199.5q0 -71 -22 -136.5t-71.5 -126t-122.5 -105t-184 -71t-247 -26.5h-596zM481 334h185q127 0 186 45.5t59 122.5q0 63 -46 100t-134 37h-205zM567 911h201 q96 0 149.5 45.5t53.5 116.5q0 57 -45 90t-131 33h-185z" />
<glyph unicode="C" horiz-adv-x="1394" d="M100 670q0 181 69.5 346t188 286t285.5 193t354 72q256 0 435 -125l-60 -377q-68 61 -164 96t-184 35q-149 0 -270.5 -72.5t-186.5 -187.5t-65 -246q0 -170 100.5 -267t269.5 -97q204 0 420 139l-59 -383q-80 -54 -194 -86.5t-230 -32.5q-202 0 -363 87.5t-253.5 249.5 t-92.5 370z" />
<glyph unicode="D" horiz-adv-x="1544" d="M55 0l234 1528h438q177 0 323.5 -51.5t245.5 -141t153 -212t54 -263.5q0 -193 -69.5 -352t-197.5 -271.5t-317.5 -174.5t-422.5 -62h-441zM506 360h65q239 0 385 128t146 335q0 165 -103.5 254.5t-291.5 89.5h-78z" />
<glyph unicode="E" horiz-adv-x="1251" d="M55 0l234 1528h981l-53 -361h-590l-37 -235h540l-47 -326h-542l-37 -246h588l-54 -360h-983z" />
<glyph unicode="F" horiz-adv-x="1214" d="M55 0l234 1528h979l-56 -361h-579l-47 -317h544l-51 -338h-547l-77 -512h-400z" />
<glyph unicode="G" horiz-adv-x="1546" d="M100 678q0 156 49 296.5t135 247t199 185t245 119.5t269 41q295 0 484 -127l-60 -373q-185 127 -399 127q-146 0 -265 -67t-186 -182t-67 -253q0 -164 99.5 -265t254.5 -101q75 0 156 36l69 459h373l-108 -710q-236 -148 -539 -148q-204 0 -365 88t-252.5 251.5 t-91.5 375.5z" />
<glyph unicode="H" horiz-adv-x="1613" d="M55 0l234 1528h397l-90 -588h532l91 588h397l-234 -1528h-397l88 580h-532l-88 -580h-398z" />
<glyph unicode="I" horiz-adv-x="684" d="M55 0l234 1528h399l-233 -1528h-400z" />
<glyph unicode="J" horiz-adv-x="1024" d="M-33 78l56 368q40 -53 101 -85.5t122 -32.5q205 0 248 256l147 944h399l-157 -1028q-38 -245 -193 -388t-387 -143q-107 0 -194 30.5t-142 78.5z" />
<glyph unicode="K" horiz-adv-x="1554" d="M55 0l230 1528h401l-102 -678l618 678h475l-702 -752l487 -776h-458l-441 723l-106 -723h-402z" />
<glyph unicode="L" horiz-adv-x="1206" d="M55 0l234 1528h399l-178 -1168h614l-57 -360h-1012z" />
<glyph unicode="M" horiz-adv-x="2123" d="M-2 0l459 1528h432l164 -959l450 959h436l11 -1528h-387l24 952l-463 -952h-307l-164 961l-270 -961h-385z" />
<glyph unicode="N" horiz-adv-x="1669" d="M55 0l234 1528h397l465 -957h4l143 957h375l-235 -1528h-396l-473 911l-133 -911h-381z" />
<glyph unicode="O" horiz-adv-x="1755" d="M100 682q0 179 68.5 342t185.5 282t282 190t349 71q154 0 288.5 -52.5t231.5 -145.5t153 -227t56 -290q0 -121 -31 -236.5t-86.5 -213t-136.5 -179.5t-177.5 -139t-212.5 -89t-239 -32q-208 0 -374 89t-261.5 254t-95.5 376zM502 696q0 -171 99.5 -270.5t254.5 -99.5 q128 0 234.5 72t164.5 186.5t58 242.5q0 173 -99.5 275t-252.5 102q-129 0 -235.5 -73.5t-165 -189.5t-58.5 -245z" />
<glyph unicode="P" horiz-adv-x="1331" d="M55 0l234 1528h387q321 0 488 -138t167 -374q0 -130 -50 -243t-142.5 -198t-235 -133.5t-317.5 -48.5h-74l-59 -393h-398zM567 748h70q131 0 209 64t78 171q0 184 -234 184h-59z" />
<glyph unicode="Q" horiz-adv-x="1755" d="M100 682q0 179 68.5 342t185.5 282t282 190t349 71q154 0 288.5 -52.5t231.5 -145.5t153 -227t56 -290q0 -159 -51.5 -304.5t-146.5 -262.5l165 -205l-274 -223l-166 204q-188 -98 -410 -98q-208 0 -374 89t-261.5 254t-95.5 376zM502 696q0 -171 99.5 -270.5 t254.5 -99.5q80 0 150 28l-246 305l274 222l228 -281q51 108 51 227q0 173 -99.5 275t-252.5 102q-129 0 -235.5 -73.5t-165 -189.5t-58.5 -245z" />
<glyph unicode="R" horiz-adv-x="1384" d="M55 0l234 1528h497q276 0 425 -123t149 -340q0 -187 -111.5 -319t-314.5 -189h2l360 -557h-462l-287 506h-15l-77 -506h-400zM578 801h92q126 0 203 55.5t77 151.5q0 159 -231 159h-86z" />
<glyph unicode="S" horiz-adv-x="1230" d="M39 147l59 381q78 -98 196.5 -157.5t252.5 -59.5q91 0 146 37t55 98q0 57 -47 94.5t-144 82.5q-189 93 -287 202t-98 252q0 98 39 184.5t112 154t188.5 106.5t258.5 39q126 0 238 -32t192 -85l-55 -359q-168 125 -381 125q-85 0 -135.5 -35t-50.5 -90q0 -47 48.5 -83 t157.5 -91q14 -6 21 -10q79 -39 138 -79.5t109 -93t76.5 -119t26.5 -144.5q0 -100 -42 -190t-118.5 -158.5t-192.5 -109t-255 -40.5q-151 0 -284.5 49.5t-223.5 130.5z" />
<glyph unicode="T" horiz-adv-x="1363" d="M141 1167l56 361h1261l-53 -361h-428l-178 -1167h-402l178 1167h-434z" />
<glyph unicode="U" horiz-adv-x="1579" d="M131 528q0 70 10 134l133 866h400l-133 -877q-9 -61 -9 -88q0 -114 66 -175.5t172 -61.5q119 0 192.5 76.5t94.5 209.5l139 916h399l-147 -953q-42 -287 -227 -449.5t-496 -162.5q-123 0 -230 37.5t-188.5 107t-128.5 178t-47 242.5z" />
<glyph unicode="V" horiz-adv-x="1587" d="M178 1528h414l176 -1073l514 1073h434l-796 -1528h-431z" />
<glyph unicode="W" horiz-adv-x="2336" d="M174 1528h397l47 -1008h3l520 1008h368l80 -1010h2l484 1010h395l-766 -1528h-399l-86 993h-2l-498 -993h-416z" />
<glyph unicode="X" horiz-adv-x="1474" d="M-47 0l600 784l-383 744h434l225 -477l338 477h435l-582 -778l375 -750h-430l-220 473l-337 -473h-455z" />
<glyph unicode="Y" horiz-adv-x="1525" d="M139 1528h434l240 -584l416 584h452l-714 -950l-88 -578h-400l92 596z" />
<glyph unicode="Z" horiz-adv-x="1339" d="M-41 0l2 18l807 1149h-588l56 361h1196l-2 -17l-805 -1151h608l-55 -360h-1219z" />
<glyph unicode="[" horiz-adv-x="911" d="M18 -430l318 2079h655l-41 -277h-344l-231 -1526h344l-43 -276h-658z" />
<glyph unicode="\" horiz-adv-x="1206" d="M193 1804h362l508 -2078h-358z" />
<glyph unicode="]" horiz-adv-x="911" d="M-76 -430l43 276h342l232 1526h-342l41 277h657l-317 -2079h-656z" />
<glyph unicode="^" d="M145 455l422 1073h318l422 -1073h-367l-213 581l-213 -581h-369z" />
<glyph unicode="_" horiz-adv-x="1079" d="M-135 -381l47 297h1079l-47 -297h-1079z" />
<glyph unicode="`" horiz-adv-x="1028" d="M219 1645l268 -371h283l-180 371h-371z" />
<glyph unicode="a" horiz-adv-x="1413" d="M63 483q0 148 46 278t124 221t183.5 143.5t220.5 52.5q110 0 196 -51t136 -144l59 164h352l-174 -1147h-336l-8 168q-150 -199 -370 -199q-186 0 -307.5 142t-121.5 372zM455 530q0 -99 53 -157t143 -58q113 0 185.5 87t72.5 206q0 100 -52 159.5t-146 59.5 q-112 0 -184 -87.5t-72 -209.5z" />
<glyph unicode="b" horiz-adv-x="1402" d="M33 0l250 1649h391l-101 -652q60 87 147.5 134t190.5 47q180 0 304 -143t124 -373q0 -146 -49.5 -276.5t-130 -221t-185 -143t-212.5 -52.5q-103 0 -189.5 52t-128.5 143l-59 -164h-352zM492 539q0 -101 52.5 -161.5t143.5 -60.5q115 0 187.5 88.5t72.5 210.5 q0 98 -53 155.5t-145 57.5q-113 0 -185.5 -85.5t-72.5 -204.5z" />
<glyph unicode="c" horiz-adv-x="1071" d="M63 520q0 181 85.5 331.5t239 238.5t343.5 88q94 0 182 -20.5t148 -57.5l-51 -338q-42 30 -107.5 48.5t-126.5 18.5q-148 0 -232.5 -83.5t-84.5 -204.5q0 -103 69 -163.5t179 -60.5q138 0 260 70l-56 -354q-120 -64 -288 -64q-161 0 -287.5 67t-199.5 193t-73 291z" />
<glyph unicode="d" horiz-adv-x="1400" d="M63 485q0 146 49.5 277.5t129.5 221t180.5 142t202.5 52.5q107 0 196.5 -52t130.5 -139l101 662h391l-250 -1649h-342l-6 168q-143 -199 -354 -199q-182 0 -305.5 142.5t-123.5 373.5zM455 530q0 -99 53 -157t143 -58q114 0 186 86.5t72 206.5q0 100 -52 159.5t-146 59.5 q-113 0 -184.5 -88.5t-71.5 -208.5z" />
<glyph unicode="e" horiz-adv-x="1253" d="M63 492q0 145 51 272.5t138 218t207 143t254 52.5q220 0 351.5 -132.5t131.5 -357.5q0 -87 -39 -219h-741q-2 -91 73.5 -145t215.5 -54q90 0 194 25.5t191 66.5l-56 -309q-74 -41 -181 -62.5t-206 -21.5q-272 0 -428 142.5t-156 380.5zM455 698h393q3 18 3 34 q1 54 -31 94q-40 50 -128 51q-81 0 -146 -49.5t-91 -129.5z" />
<glyph unicode="f" horiz-adv-x="940" d="M90 825l47 322h162l14 86q15 92 52 168t98.5 137.5t156 96t214.5 34.5q116 0 233 -31l-49 -317q-82 14 -129 14q-171 0 -189 -129l-10 -59h264l-49 -322h-264l-125 -825h-391l125 825h-160z" />
<glyph unicode="g" horiz-adv-x="1411" d="M23 -291l57 363q188 -197 416 -197q129 0 221.5 59.5t111.5 180.5l11 69q-55 -66 -139.5 -107.5t-186.5 -41.5q-199 0 -322.5 141t-123.5 359q0 134 45.5 253.5t122.5 204t182 134t219 49.5q234 0 338 -191l59 162h344l-151 -1000q-25 -153 -90.5 -270.5t-161 -190.5 t-213.5 -110t-254 -37q-128 0 -260.5 44.5t-224.5 125.5zM465 563q0 -90 54 -143t140 -53q110 0 183 80.5t73 185.5q0 89 -55 145t-141 56q-107 0 -180.5 -81t-73.5 -190z" />
<glyph unicode="h" horiz-adv-x="1320" d="M33 0l250 1649h391l-92 -607h4q127 136 307 136q177 0 275 -116q77 -91 77 -226q0 -37 -6 -78l-117 -758h-391l100 655q3 21 3 39q0 52 -24 86q-33 48 -101 47q-77 0 -126 -49t-61 -129l-98 -649h-391z" />
<glyph unicode="i" horiz-adv-x="630" d="M33 0l174 1147h391l-174 -1147h-391zM244 1464q0 85 59.5 144t145.5 59t146 -59t60 -144q0 -86 -60 -145t-146 -59t-145.5 59t-59.5 145z" />
<glyph unicode="j" horiz-adv-x="634" d="M-317 -430q115 83 188.5 170t129 226t87.5 341l127 840h391l-143 -938q-31 -196 -99 -355t-196 -284h-485zM252 1464q0 85 60.5 144t146.5 59t146.5 -59t60.5 -144q0 -86 -60 -145t-147 -59t-147 59t-60 145z" />
<glyph unicode="k" horiz-adv-x="1347" d="M33 0l250 1649h391l-154 -1004l449 502h442l-500 -561l342 -586h-424l-323 551l-82 -551h-391z" />
<glyph unicode="l" horiz-adv-x="630" d="M33 0l250 1649h393l-252 -1649h-391z" />
<glyph unicode="m" horiz-adv-x="1927" d="M33 0l174 1147h289l12 -152h8q143 183 346 183q114 0 194 -52t111 -141q139 193 355 193q173 0 262 -114q68 -86 67 -212q0 -40 -6 -84l-116 -768h-392l103 670q3 22 3 41q-1 43 -17 73q-24 43 -87 43q-65 0 -107.5 -44t-53.5 -111l-103 -672h-391l102 670q4 26 4 47 q0 110 -102 110q-65 0 -108 -44.5t-54 -112.5l-102 -670h-391z" />
<glyph unicode="n" horiz-adv-x="1320" d="M33 0l174 1147h299l14 -156h4q155 187 369 187q177 0 275 -115q77 -90 77 -226q0 -38 -6 -79l-117 -758h-391l100 655q3 21 3 39q0 52 -24 86q-33 48 -101 47q-77 0 -126 -49t-61 -129l-98 -649h-391z" />
<glyph unicode="o" horiz-adv-x="1351" d="M63 508q0 136 51 260t139 214t211.5 143t262.5 53q243 0 402 -152.5t159 -390.5q0 -182 -87.5 -334.5t-242 -242t-342.5 -89.5q-152 0 -278 68t-200.5 192t-74.5 279zM449 532q0 -99 54 -158t144 -59q111 0 184.5 87.5t73.5 205.5q0 99 -55 159t-145 60q-112 0 -184 -89 t-72 -206z" />
<glyph unicode="p" horiz-adv-x="1400" d="M-33 -430l240 1577h332l2 -168q68 94 165 146.5t205 52.5q181 0 303.5 -142.5t122.5 -373.5q0 -146 -47.5 -276.5t-126.5 -221t-183.5 -143t-215.5 -52.5q-102 0 -187.5 52t-127.5 143l-91 -594h-391zM496 539q0 -101 52.5 -161.5t145.5 -60.5q114 0 185 89t71 210 q0 98 -52.5 155.5t-143.5 57.5q-113 0 -185.5 -85.5t-72.5 -204.5z" />
<glyph unicode="q" horiz-adv-x="1402" d="M63 483q0 198 75 357.5t203.5 248.5t283.5 89q111 0 196 -50.5t137 -144.5l60 164h352l-240 -1577h-391l88 580q-126 -181 -335 -181q-181 0 -305 143t-124 371zM455 530q0 -99 53 -157t143 -58q114 0 186 86.5t72 206.5q0 99 -52.5 159t-143.5 60q-114 0 -186 -88 t-72 -209z" />
<glyph unicode="r" horiz-adv-x="901" d="M33 0l174 1147h303l12 -156h4q68 95 154.5 140t173.5 45q49 0 92 -15l-53 -358q-56 11 -105 11q-246 0 -288 -284l-76 -530h-391z" />
<glyph unicode="s" horiz-adv-x="1085" d="M31 109l51 348q72 -72 202 -119t222 -47q125 0 125 59q0 24 -35 44.5t-139 56.5q-80 28 -134 55.5t-102 67.5t-71 95.5t-23 127.5q0 164 134 272.5t366 108.5q218 0 409 -99l-49 -319q-65 37 -171 65.5t-185 28.5q-123 0 -123 -53q0 -23 34.5 -43.5t143.5 -59.5 q80 -28 134.5 -56t102.5 -68t71.5 -96t23.5 -128q0 -170 -136.5 -275.5t-371.5 -105.5q-139 0 -264 37t-215 103z" />
<glyph unicode="t" horiz-adv-x="974" d="M80 825l49 322h158l41 264h381l-41 -264h299l-49 -322h-297l-50 -317q-5 -29 -5 -54q0 -60 30 -92q42 -45 135 -45q77 0 166 27l-51 -330q-87 -37 -236 -37q-234 -1 -349 127q-88 97 -88 252q0 48 9 103l58 366h-160z" />
<glyph unicode="u" horiz-adv-x="1304" d="M98 514l97 633h391l-99 -651q-3 -21 -3 -39q0 -57 28 -93q37 -47 113 -47q143 0 172 179l96 651h393l-100 -666q-38 -240 -189 -376t-409 -136q-162 0 -283 71.5t-175 195.5q-38 88 -39 190q0 43 7 88z" />
<glyph unicode="v" horiz-adv-x="1277" d="M90 1147h404l118 -741h9l317 741h420l-578 -1147h-420z" />
<glyph unicode="w" horiz-adv-x="1898" d="M111 1147h389l41 -729h8l307 729h377l74 -729h8l272 729h373l-479 -1147h-422l-72 694h-8l-301 -694h-428z" />
<glyph unicode="x" horiz-adv-x="1261" d="M-90 0l473 586l-305 561h424l153 -313h4l236 313h434l-469 -563l318 -584h-445l-149 324h-6l-238 -324h-430z" />
<glyph unicode="y" horiz-adv-x="1284" d="M88 -430l274 506l-272 1071h404l131 -680h8l319 680h420l-864 -1577h-420z" />
<glyph unicode="z" horiz-adv-x="1126" d="M-45 0l2 16l559 781h-414l54 350h995l-2 -14l-555 -781h453l-56 -352h-1036z" />
<glyph unicode="{" horiz-adv-x="917" d="M78 471l33 217q220 37 243 219l45 301q29 192 139 296t304 104q62 0 123 -9l-39 -266q-208 19 -236 -164l-45 -292q-17 -112 -71.5 -187.5t-170.5 -111.5l3 -3q-1 0 -3 -2q144 -65 154 -223q0 -46 -6 -96l-41 -258q-13 -89 28 -132t158 -32l-41 -264q-52 -6 -102 -6 q-170 0 -260 83.5t-90 229.5q0 28 8 82l43 297q32 183 -176 217z" />
<glyph unicode="|" horiz-adv-x="927" d="M297 -373v2276h334v-2276h-334z" />
<glyph unicode="}" horiz-adv-x="917" d="M-37 -430l39 266q210 -22 238 164l43 291q17 113 71 189.5t170 113.5q-144 65 -151 225q-3 47 6 96l39 259q13 89 -28 131.5t-159 31.5l41 265q52 6 105 6q168 0 258 -85t90 -229q0 -40 -6 -84l-45 -295q-28 -184 176 -217l-33 -217q-221 -37 -244 -219l-45 -303 q-60 -397 -442 -397q-68 0 -123 8z" />
<glyph unicode="~" d="M49 524q3 488 381 488q65 0 141 -23.5t133.5 -51.5t125 -51.5t118.5 -23.5q63 0 106.5 35t53.5 107h295q-3 -486 -381 -486q-65 0 -141 23.5t-133.5 51.5t-125 51.5t-118.5 23.5q-64 0 -107.5 -35.5t-54.5 -108.5h-293z" />
<glyph unicode="&#xa1;" horiz-adv-x="702" d="M68 0l206 973h258l-77 -973h-387zM229 1333q0 88 61.5 149.5t149.5 61.5t148.5 -61.5t60.5 -149.5t-60.5 -149.5t-148.5 -61.5t-149.5 61.5t-61.5 149.5z" />
<glyph unicode="&#xa2;" horiz-adv-x="1132" d="M59 516q0 232 146.5 403t378.5 216l32 211h265l-31 -207q135 -20 209 -64l-49 -330q-94 62 -244 62q-146 0 -234 -81t-88 -185q0 -92 69.5 -147.5t174.5 -55.5q149 0 270 63l-53 -340q-94 -51 -227 -65l-29 -174h-262l33 203q-164 52 -262.5 182t-98.5 309z" />
<glyph unicode="&#xa3;" horiz-adv-x="1325" d="M31 0l2 23q90 104 155 229t131 323l13 39h-172l37 250h219l47 137q101 302 248 434t381 132q60 0 130.5 -16t112.5 -38l-51 -329q-86 51 -178 51q-99 0 -168.5 -66t-118.5 -211l-31 -94h312l-37 -250h-365q-74 -183 -147 -282h598l-51 -332h-1067z" />
<glyph unicode="&#xa4;" horiz-adv-x="1380" d="M117 1128l207 209l125 -125q118 64 245 64t248 -64l115 125l207 -211l-121 -120q65 -113 65 -242t-61 -244l115 -119l-207 -206l-117 118q-126 -63 -244 -63q-131 0 -248 57l-120 -114l-207 204l121 117q-68 126 -68 250q0 123 68 242zM440 764q0 -106 73 -179t179 -73 q103 0 177.5 73.5t74.5 178.5q0 103 -74.5 176.5t-177.5 73.5q-105 0 -178.5 -73.5t-73.5 -176.5z" />
<glyph unicode="&#xa5;" horiz-adv-x="1579" d="M156 1528h444l248 -522h6l401 522h443l-576 -709h211l-33 -211h-303l-12 -76h305l-33 -213h-303l-49 -319h-399l49 319h-301l31 213h301l12 76h-303l33 211h211z" />
<glyph unicode="&#xa6;" horiz-adv-x="880" d="M297 -373v932h285v-932h-285zM297 971v932h285v-932h-285z" />
<glyph unicode="&#xa7;" horiz-adv-x="1110" d="M-37 -262l49 328q72 -68 166.5 -112t188.5 -44q99 0 157 35.5t58 87.5q0 27 -13.5 49.5t-43.5 42t-58.5 33t-77.5 32.5q-134 52 -221.5 141t-87.5 214q0 113 67.5 197t176.5 126q-138 120 -138 275q0 84 38 160.5t107 135t174.5 93.5t231.5 35q106 0 202.5 -26.5 t164.5 -70.5l-49 -311q-61 47 -151 77t-167 30q-88 0 -140 -31t-52 -76q0 -39 38.5 -66t137.5 -69q157 -67 245.5 -152.5t88.5 -207.5q0 -106 -70.5 -195t-185.5 -137q147 -119 147 -277q0 -87 -39.5 -167t-110.5 -141.5t-178 -98.5t-233 -37q-129 0 -240 36t-182 91z M430 586q0 -42 32 -69t95 -52q61 8 103 41t42 88q0 68 -79 113q-67 18 -130 -20t-63 -101z" />
<glyph unicode="&#xa8;" horiz-adv-x="1050" d="M186 1460q0 70 51.5 121t122.5 51q72 0 124.5 -51t52.5 -121t-52.5 -120t-124.5 -50q-71 0 -122.5 50t-51.5 120zM674 1460q0 71 51 121.5t123 50.5t123 -50.5t51 -121.5q0 -70 -51 -120t-123 -50t-123 50t-51 120z" />
<glyph unicode="&#xa9;" horiz-adv-x="1810" d="M92 764q0 217 108 401.5t295.5 293t409.5 108.5t409 -108.5t294.5 -293t107.5 -401.5t-107.5 -401t-294.5 -292t-409 -108t-409.5 108t-295.5 292t-108 401zM295 764q0 -124 47.5 -236t128.5 -193t194 -129t240 -48q170 0 310.5 81t220.5 220t80 305t-80 305.5 t-220.5 221t-310.5 81.5q-169 0 -309.5 -81.5t-220.5 -221t-80 -305.5zM498 762q0 125 59.5 224.5t157 152.5t213.5 53q133 0 237 -53v-219q-94 67 -202 67q-102 0 -170 -63t-68 -162q0 -97 68 -160t170 -63q109 0 202 67v-219q-104 -51 -237 -51q-116 0 -213.5 52 t-157 150.5t-59.5 223.5z" />
<glyph unicode="&#xaa;" horiz-adv-x="1255" d="M145 1049q0 107 38 202t100.5 160t144.5 103t168 38q87 0 158 -36t106 -101l39 113h272l-133 -875h-268v115q-49 -68 -119.5 -103.5t-144.5 -35.5q-156 0 -258.5 119t-102.5 301zM451 1059q0 -77 41 -121.5t114 -44.5q87 0 148 63.5t61 163.5q0 78 -42 123t-111 45 q-88 0 -149.5 -65t-61.5 -164z" />
<glyph unicode="&#xab;" horiz-adv-x="1605" d="M98 483l33 215l700 469l-55 -368l-348 -228l277 -237l-54 -352zM770 483l33 215l700 469l-55 -368l-348 -228l276 -237l-53 -352z" />
<glyph unicode="&#xac;" d="M109 612v303h1237v-774h-318v471h-919z" />
<glyph unicode="&#xad;" horiz-adv-x="839" d="M84 506l43 291h627l-43 -291h-627z" />
<glyph unicode="&#xae;" horiz-adv-x="1810" d="M92 764q0 217 108 401.5t295.5 293t409.5 108.5t409 -108.5t294.5 -293t107.5 -401.5t-107.5 -401t-294.5 -292t-409 -108t-409.5 108t-295.5 292t-108 401zM295 764q0 -124 47.5 -236t128.5 -193t194 -129t240 -48q170 0 310.5 81t220.5 220t80 305t-80 305.5 t-220.5 221t-310.5 81.5q-169 0 -309.5 -81.5t-220.5 -221t-80 -305.5zM618 360v818h259q160 0 254 -76t94 -207q0 -79 -54.5 -143.5t-132.5 -94.5l234 -297h-248l-186 265h-17v-265h-203zM817 793h62q62 0 101.5 28t39.5 76q0 102 -166 102h-37v-206z" />
<glyph unicode="&#xaf;" horiz-adv-x="1036" d="M203 1348l37 229h774l-37 -229h-774z" />
<glyph unicode="&#xb0;" horiz-adv-x="876" d="M170 1208q0 151 104 255t256 104t257.5 -104t105.5 -255q0 -148 -105.5 -251t-257.5 -103t-256 103t-104 251zM373 1208q0 -67 45.5 -112t111.5 -45q69 0 113.5 44.5t44.5 112.5t-45 114t-113 46q-66 0 -111.5 -46.5t-45.5 -113.5z" />
<glyph unicode="&#xb1;" d="M143 0v301h1166v-301h-1166zM143 795v303h416v397h318v-397h432v-303h-432v-385h-318v385h-416z" />
<glyph unicode="&#xb2;" horiz-adv-x="845" d="M94 674l2 28q284 275 314 306q129 132 152 196q7 21 7 39q0 39 -25.5 60.5t-72.5 21.5q-104 0 -244 -94l39 258q117 74 262 74q133 0 216 -74t83 -195q0 -85 -58 -175t-189 -206h254l-35 -239h-705z" />
<glyph unicode="&#xb3;" horiz-adv-x="817" d="M135 756l33 225q40 -32 122.5 -57t151.5 -25q55 0 92 17t37 49q0 65 -141 65h-141l28 191h136q63 0 96 19t33 48q0 23 -31.5 35t-79.5 12q-128 0 -235 -49l30 213q49 29 124 46.5t149 17.5q146 0 221.5 -64.5t75.5 -155.5q0 -62 -35.5 -117t-95.5 -89v-2q53 -30 81.5 -81 t28.5 -112q0 -118 -93 -196t-259 -78q-95 0 -189.5 26t-138.5 62z" />
<glyph unicode="&#xb4;" horiz-adv-x="1030" d="M262 1274l279 371h372l-366 -371h-285z" />
<glyph unicode="&#xb5;" horiz-adv-x="1329" d="M-23 -430l238 1577h381l-96 -649q-12 -80 23.5 -127t111.5 -47q71 0 121 44t61 111l98 668h381l-172 -1147h-290l-15 154q-111 -168 -284 -168q-147 0 -222 116l33 -532h-369z" />
<glyph unicode="&#xb6;" horiz-adv-x="1613" d="M162 973q0 117 52 218t146.5 176t237 118t315.5 43h705l-297 -1958h-287l252 1671h-137l-256 -1671h-291l146 942h-52q-242 0 -388 130.5t-146 330.5z" />
<glyph unicode="&#xb7;" horiz-adv-x="671" d="M68 764q0 88 61.5 149.5t149.5 61.5q87 0 147.5 -61.5t60.5 -149.5t-60.5 -149.5t-147.5 -61.5q-88 0 -149.5 61.5t-61.5 149.5z" />
<glyph unicode="&#xb8;" horiz-adv-x="1034" d="M168 -381q197 222 205 420h301q-6 -250 -144 -420h-362z" />
<glyph unicode="&#xb9;" horiz-adv-x="755" d="M205 1116l45 275l442 159h23l-137 -903h-256l84 541z" />
<glyph unicode="&#xba;" horiz-adv-x="1120" d="M150 1051q0 223 149 362t371 139q196 0 320 -111t124 -304q0 -147 -67 -263.5t-182 -179.5t-257 -63q-215 0 -336.5 115.5t-121.5 304.5zM444 1055q0 -74 49.5 -119t122.5 -45q82 0 142.5 60.5t60.5 166.5q0 83 -45.5 128.5t-114.5 45.5q-81 0 -148 -64.5t-67 -172.5z " />
<glyph unicode="&#xbb;" horiz-adv-x="1605" d="M88 -18l55 370l349 226l-279 237l53 352l555 -501l-35 -215zM760 -18l55 370l346 226l-276 237l53 352l555 -501l-35 -215z" />
<glyph unicode="&#xbc;" horiz-adv-x="2027" d="M236 1116l43 275l442 159h22l-137 -903h-256l86 541zM336 0l1030 1528h242l-1030 -1528h-242zM999 170l25 164l483 547h258l-73 -486h133l-33 -225h-133l-27 -170h-221l27 170h-439zM1300 395h170l35 230z" />
<glyph unicode="&#xbd;" horiz-adv-x="2078" d="M236 1116l43 275l442 159h22l-137 -903h-256l86 541zM336 0l1030 1528h242l-1030 -1528h-242zM1110 0l2 29q282 273 318 311q127 130 147 194q6 18 6 35q0 39 -25.5 60.5t-72.5 21.5q-103 0 -244 -96l39 260q120 74 264 74q131 0 214 -73.5t83 -194.5q0 -85 -58 -174.5 t-190 -206.5h256l-37 -240h-702z" />
<glyph unicode="&#xbe;" horiz-adv-x="2095" d="M174 756l33 225q40 -32 122.5 -57t151.5 -25q54 0 91.5 17t37.5 49q0 65 -143 65h-139l28 191h136q63 0 96 19t33 48q0 23 -31.5 35t-79.5 12q-129 0 -236 -49l31 213q49 29 124 46.5t149 17.5q146 0 220 -64.5t74 -155.5q0 -62 -35 -117t-94 -89v-2q53 -30 82 -81 t29 -112q0 -118 -93 -196t-259 -78q-95 0 -189.5 26t-138.5 62zM434 0l1030 1528h242l-1028 -1528h-244zM1073 170l25 164l483 547h260l-74 -486h134l-35 -225h-133l-25 -170h-221l24 170h-438zM1374 395h172l35 230z" />
<glyph unicode="&#xbf;" horiz-adv-x="1105" d="M18 356q0 64 20 124.5t54 113.5t95 114.5t125.5 116.5t162.5 131h328l-93.5 -93.5l-82 -82t-64 -66t-55 -61t-38 -50.5t-29.5 -51t-14.5 -46t-6.5 -51q0 -61 46 -106.5t134 -45.5q87 0 188 33t173 84l-50 -363q-81 -44 -188 -70t-213 -26q-123 0 -220 33.5t-155 90.5 t-87.5 126t-29.5 145zM496 1331q0 88 60.5 149.5t148.5 61.5t149 -61.5t61 -149.5t-61 -148.5t-149 -60.5t-148.5 60.5t-60.5 148.5z" />
<glyph unicode="&#xc0;" horiz-adv-x="1599" d="M-90 0l823 1528h467l316 -1528h-404l-61 332h-539l-170 -332h-432zM627 2028h370l179 -371h-283zM680 655h311l-82 447z" />
<glyph unicode="&#xc1;" horiz-adv-x="1599" d="M-90 0l823 1528h467l316 -1528h-404l-61 332h-539l-170 -332h-432zM680 655h311l-82 447zM776 1657l279 371h372l-366 -371h-285z" />
<glyph unicode="&#xc2;" horiz-adv-x="1599" d="M-90 0l823 1528h467l316 -1528h-404l-61 332h-539l-170 -332h-432zM543 1661l348 367h272l238 -367h-305l-90 164l-132 -164h-331zM680 655h311l-82 447z" />
<glyph unicode="&#xc3;" horiz-adv-x="1599" d="M-90 0l823 1528h467l316 -1528h-404l-61 332h-539l-170 -332h-432zM508 1673q14 170 105 258t227 88q52 0 100 -18t78.5 -39t70.5 -39t78 -18q51 0 81.5 32.5t37.5 77.5h223q-17 -172 -109 -260t-229 -88q-50 0 -97.5 18t-78 39.5t-70.5 39.5t-77 18q-53 0 -83.5 -32 t-37.5 -77h-219zM680 655h311l-82 447z" />
<glyph unicode="&#xc4;" horiz-adv-x="1599" d="M-90 0l823 1528h467l316 -1528h-404l-61 332h-539l-170 -332h-432zM573 1843q0 71 50.5 121.5t121.5 50.5q72 0 124.5 -51t52.5 -121t-52.5 -121t-124.5 -51q-71 0 -121.5 50.5t-50.5 121.5zM680 655h311l-82 447zM1059 1843q0 71 51 121.5t123 50.5t123 -50.5t51 -121.5 t-51 -121.5t-123 -50.5t-123 50.5t-51 121.5z" />
<glyph unicode="&#xc5;" horiz-adv-x="1599" d="M-90 0l823 1528h467l316 -1528h-404l-61 332h-539l-170 -332h-432zM680 655h311l-82 447zM739 1892q0 108 78 178t193 70q117 0 191.5 -69.5t74.5 -178.5q0 -103 -75 -173t-191 -70q-114 0 -192.5 71t-78.5 172zM903 1892q0 -44 33 -72t74 -28q40 0 72 28t32 72 q0 48 -31 74.5t-73 26.5t-74.5 -26.5t-32.5 -74.5z" />
<glyph unicode="&#xc6;" horiz-adv-x="2185" d="M-96 0l1177 1528h1125l-54 -361h-581l-37 -235h532l-45 -326h-534l-35 -246h586l-56 -360h-989l51 346h-411l-260 -346h-469zM866 668h226l57 372z" />
<glyph unicode="&#xc7;" horiz-adv-x="1394" d="M100 670q0 181 69.5 346t188 286t285.5 193t354 72q256 0 435 -125l-60 -377q-68 61 -164 96t-184 35q-149 0 -270.5 -72.5t-186.5 -187.5t-65 -246q0 -170 100.5 -267t269.5 -97q204 0 420 139l-59 -383q-115 -76 -279 -107q-19 -207 -139 -356h-364q168 190 200 358 q-247 50 -399 236t-152 457z" />
<glyph unicode="&#xc8;" horiz-adv-x="1251" d="M55 0l234 1528h981l-53 -361h-590l-37 -235h540l-47 -326h-542l-37 -246h588l-54 -360h-983zM446 2028l269 -371h282l-180 371h-371z" />
<glyph unicode="&#xc9;" horiz-adv-x="1251" d="M55 0l234 1528h981l-53 -361h-590l-37 -235h540l-47 -326h-542l-37 -246h588l-54 -360h-983zM596 1657l281 371h372l-368 -371h-285z" />
<glyph unicode="&#xca;" horiz-adv-x="1251" d="M55 0l234 1528h981l-53 -361h-590l-37 -235h540l-47 -326h-542l-37 -246h588l-54 -360h-983zM365 1661l346 367h272l240 -367h-305l-91 164l-131 -164h-331z" />
<glyph unicode="&#xcb;" horiz-adv-x="1251" d="M55 0l234 1528h981l-53 -361h-590l-37 -235h540l-47 -326h-542l-37 -246h588l-54 -360h-983zM393 1843q0 70 51.5 121t122.5 51q72 0 124 -51t52 -121t-52 -121t-124 -51q-71 0 -122.5 51t-51.5 121zM881 1843q0 71 50 121.5t122 50.5q73 0 123.5 -50.5t50.5 -121.5 t-50.5 -121.5t-123.5 -50.5q-72 0 -122 50.5t-50 121.5z" />
<glyph unicode="&#xcc;" horiz-adv-x="684" d="M55 0l234 1528h399l-233 -1528h-400zM156 2028l268 -371h283l-181 371h-370z" />
<glyph unicode="&#xcd;" horiz-adv-x="684" d="M55 0l234 1528h399l-233 -1528h-400zM305 1657l279 371h372l-366 -371h-285z" />
<glyph unicode="&#xce;" horiz-adv-x="684" d="M55 0l234 1528h399l-233 -1528h-400zM72 1661l348 367h272l238 -367h-303l-92 164l-129 -164h-334z" />
<glyph unicode="&#xcf;" horiz-adv-x="684" d="M55 0l234 1528h399l-233 -1528h-400zM102 1843q0 70 51.5 121t122.5 51q72 0 123.5 -50.5t51.5 -121.5t-51.5 -121.5t-123.5 -50.5q-71 0 -122.5 51t-51.5 121zM590 1843q0 71 50 121.5t122 50.5t123 -50.5t51 -121.5t-51 -121.5t-123 -50.5t-122 50.5t-50 121.5z" />
<glyph unicode="&#xd0;" horiz-adv-x="1595" d="M51 618l41 287h154l94 623h440q177 0 323.5 -51.5t244.5 -141t152 -212t54 -263.5q0 -193 -69 -352t-197 -271.5t-318 -174.5t-423 -62h-441l95 618h-150zM559 360h66q238 0 383 127.5t145 335.5q0 165 -102.5 254.5t-290.5 89.5h-78l-39 -262h275l-46 -287h-274z" />
<glyph unicode="&#xd1;" horiz-adv-x="1669" d="M55 0l234 1528h397l465 -957h4l143 957h375l-235 -1528h-396l-473 911l-133 -911h-381zM528 1673q17 170 108 258t226 88q52 0 100 -18t78.5 -39t71 -39t78.5 -18q51 0 81.5 32.5t37.5 77.5h223q-17 -172 -109 -260t-229 -88q-50 0 -97.5 18t-78.5 39.5t-71.5 39.5 t-78.5 18q-51 0 -81 -32t-37 -77h-222z" />
<glyph unicode="&#xd2;" horiz-adv-x="1755" d="M100 682q0 179 68.5 342t185.5 282t282 190t349 71q154 0 288.5 -52.5t231.5 -145.5t153 -227t56 -290q0 -121 -31 -236.5t-86.5 -213t-136.5 -179.5t-177.5 -139t-212.5 -89t-239 -32q-208 0 -374 89t-261.5 254t-95.5 376zM502 696q0 -171 99.5 -270.5t254.5 -99.5 q128 0 234.5 72t164.5 186.5t58 242.5q0 173 -99.5 275t-252.5 102q-129 0 -235.5 -73.5t-165 -189.5t-58.5 -245zM653 2028l267 -371h282l-178 371h-371z" />
<glyph unicode="&#xd3;" horiz-adv-x="1755" d="M100 682q0 179 68.5 342t185.5 282t282 190t349 71q154 0 288.5 -52.5t231.5 -145.5t153 -227t56 -290q0 -121 -31 -236.5t-86.5 -213t-136.5 -179.5t-177.5 -139t-212.5 -89t-239 -32q-208 0 -374 89t-261.5 254t-95.5 376zM502 696q0 -171 99.5 -270.5t254.5 -99.5 q128 0 234.5 72t164.5 186.5t58 242.5q0 173 -99.5 275t-252.5 102q-129 0 -235.5 -73.5t-165 -189.5t-58.5 -245zM803 1657l278 371h373l-367 -371h-284z" />
<glyph unicode="&#xd4;" horiz-adv-x="1755" d="M100 682q0 179 68.5 342t185.5 282t282 190t349 71q154 0 288.5 -52.5t231.5 -145.5t153 -227t56 -290q0 -121 -31 -236.5t-86.5 -213t-136.5 -179.5t-177.5 -139t-212.5 -89t-239 -32q-208 0 -374 89t-261.5 254t-95.5 376zM502 696q0 -171 99.5 -270.5t254.5 -99.5 q128 0 234.5 72t164.5 186.5t58 242.5q0 173 -99.5 275t-252.5 102q-129 0 -235.5 -73.5t-165 -189.5t-58.5 -245zM569 1661l349 367h272l237 -367h-303l-92 164l-131 -164h-332z" />
<glyph unicode="&#xd5;" horiz-adv-x="1755" d="M100 682q0 179 68.5 342t185.5 282t282 190t349 71q154 0 288.5 -52.5t231.5 -145.5t153 -227t56 -290q0 -121 -31 -236.5t-86.5 -213t-136.5 -179.5t-177.5 -139t-212.5 -89t-239 -32q-208 0 -374 89t-261.5 254t-95.5 376zM502 696q0 -171 99.5 -270.5t254.5 -99.5 q128 0 234.5 72t164.5 186.5t58 242.5q0 173 -99.5 275t-252.5 102q-129 0 -235.5 -73.5t-165 -189.5t-58.5 -245zM535 1673q14 170 105 258t226 88q52 0 100 -18t78.5 -39t71 -39t78.5 -18q51 0 81.5 32.5t37.5 77.5h223q-17 -172 -109 -260t-229 -88q-50 0 -97.5 18 t-78.5 39.5t-71 39.5t-77 18q-53 0 -83 -32t-37 -77h-219z" />
<glyph unicode="&#xd6;" horiz-adv-x="1755" d="M100 682q0 179 68.5 342t185.5 282t282 190t349 71q154 0 288.5 -52.5t231.5 -145.5t153 -227t56 -290q0 -121 -31 -236.5t-86.5 -213t-136.5 -179.5t-177.5 -139t-212.5 -89t-239 -32q-208 0 -374 89t-261.5 254t-95.5 376zM502 696q0 -171 99.5 -270.5t254.5 -99.5 q128 0 234.5 72t164.5 186.5t58 242.5q0 173 -99.5 275t-252.5 102q-129 0 -235.5 -73.5t-165 -189.5t-58.5 -245zM600 1843q0 71 51 121.5t121 50.5q73 0 124.5 -50.5t51.5 -121.5t-51.5 -121.5t-124.5 -50.5q-70 0 -121 50.5t-51 121.5zM1085 1843q0 71 51.5 121.5 t123.5 50.5t123 -50.5t51 -121.5t-51 -121.5t-123 -50.5t-123.5 50.5t-51.5 121.5z" />
<glyph unicode="&#xd7;" d="M123 377l389 387l-389 387l213 213l389 -387l389 387l213 -213l-389 -387l389 -387l-213 -213l-389 387l-389 -387z" />
<glyph unicode="&#xd8;" horiz-adv-x="1755" d="M14 135l187 164q-101 175 -101 383q0 179 68.5 342t185.5 282t282 190t349 71q274 0 475 -158l187 164l155 -180l-186 -164q98 -165 98 -377q0 -121 -31 -236.5t-86.5 -213t-136.5 -179.5t-177.5 -139t-212.5 -89t-239 -32q-273 0 -475 156l-186 -164zM496 696 q0 -64 16 -123l657 580q-89 64 -208 64q-132 0 -240.5 -75t-166.5 -193.5t-58 -252.5zM647 375q91 -62 209 -62q100 0 187.5 43.5t147 114.5t94 164t34.5 192q0 73 -14 125z" />
<glyph unicode="&#xd9;" horiz-adv-x="1579" d="M131 528q0 70 10 134l133 866h400l-133 -877q-9 -61 -9 -88q0 -114 66 -175.5t172 -61.5q119 0 192.5 76.5t94.5 209.5l139 916h399l-147 -953q-42 -287 -227 -449.5t-496 -162.5q-123 0 -230 37.5t-188.5 107t-128.5 178t-47 242.5zM602 2028l268 -371h283l-180 371 h-371z" />
<glyph unicode="&#xda;" horiz-adv-x="1579" d="M131 528q0 70 10 134l133 866h400l-133 -877q-9 -61 -9 -88q0 -114 66 -175.5t172 -61.5q119 0 192.5 76.5t94.5 209.5l139 916h399l-147 -953q-42 -287 -227 -449.5t-496 -162.5q-123 0 -230 37.5t-188.5 107t-128.5 178t-47 242.5zM754 1657l278 371h373l-367 -371 h-284z" />
<glyph unicode="&#xdb;" horiz-adv-x="1579" d="M131 528q0 70 10 134l133 866h400l-133 -877q-9 -61 -9 -88q0 -114 66 -175.5t172 -61.5q119 0 192.5 76.5t94.5 209.5l139 916h399l-147 -953q-42 -287 -227 -449.5t-496 -162.5q-123 0 -230 37.5t-188.5 107t-128.5 178t-47 242.5zM520 1661l348 367h273l237 -367h-305 l-90 164l-131 -164h-332z" />
<glyph unicode="&#xdc;" horiz-adv-x="1579" d="M131 528q0 70 10 134l133 866h400l-133 -877q-9 -61 -9 -88q0 -114 66 -175.5t172 -61.5q119 0 192.5 76.5t94.5 209.5l139 916h399l-147 -953q-42 -287 -227 -449.5t-496 -162.5q-123 0 -230 37.5t-188.5 107t-128.5 178t-47 242.5zM549 1843q0 70 51.5 121t122.5 51 q72 0 124 -51t52 -121t-52 -121t-124 -51q-71 0 -122.5 51t-51.5 121zM1036 1843q0 71 51 121.5t123 50.5t123 -50.5t51 -121.5t-51 -121.5t-123 -50.5t-123 50.5t-51 121.5z" />
<glyph unicode="&#xdd;" horiz-adv-x="1525" d="M139 1528h434l240 -584l416 584h452l-714 -950l-88 -578h-400l92 596zM729 1657l279 371h372l-366 -371h-285z" />
<glyph unicode="&#xde;" horiz-adv-x="1347" d="M55 0l234 1528h399l-29 -191h101q288 0 444 -140.5t156 -375.5q0 -132 -48 -243.5t-139.5 -194t-233.5 -128.5t-321 -46h-133l-30 -209h-400zM539 561h120q128 0 209.5 63t81.5 171q0 91 -61 138.5t-170 47.5h-115z" />
<glyph unicode="&#xdf;" horiz-adv-x="1443" d="M33 0l174 1141q37 248 196.5 388t411.5 140q115 0 209.5 -34t155.5 -91.5t94 -131.5t33 -155q0 -121 -58 -210.5t-145 -131.5v-4q101 -28 166.5 -90.5t93 -141t27.5 -175.5q0 -128 -49.5 -230t-136 -167t-200 -99.5t-243.5 -34.5q-36 0 -98.5 11t-104.5 26l43 279 q56 -23 123 -23q128 0 206.5 62.5t78.5 175.5q0 85 -56.5 143t-169.5 58h-104l37 258h14q99 0 163 57t64 147q0 74 -38.5 122t-118.5 48t-135 -52t-68 -142l-174 -1143h-391z" />
<glyph unicode="&#xe0;" horiz-adv-x="1413" d="M63 483q0 148 46 278t124 221t183.5 143.5t220.5 52.5q110 0 196 -51t136 -144l59 164h352l-174 -1147h-336l-8 168q-150 -199 -370 -199q-186 0 -307.5 142t-121.5 372zM438 1642l267 -370h284l-180 370h-371zM455 530q0 -99 53 -157t143 -58q113 0 185.5 87t72.5 206 q0 100 -52 159.5t-146 59.5q-112 0 -184 -87.5t-72 -209.5z" />
<glyph unicode="&#xe1;" horiz-adv-x="1413" d="M63 483q0 148 46 278t124 221t183.5 143.5t220.5 52.5q110 0 196 -51t136 -144l59 164h352l-174 -1147h-336l-8 168q-150 -199 -370 -199q-186 0 -307.5 142t-121.5 372zM455 530q0 -99 53 -157t143 -58q113 0 185.5 87t72.5 206q0 100 -52 159.5t-146 59.5 q-112 0 -184 -87.5t-72 -209.5zM588 1272l278 370h373l-367 -370h-284z" />
<glyph unicode="&#xe2;" horiz-adv-x="1413" d="M63 483q0 148 46 278t124 221t183.5 143.5t220.5 52.5q110 0 196 -51t136 -144l59 164h352l-174 -1147h-336l-8 168q-150 -199 -370 -199q-186 0 -307.5 142t-121.5 372zM354 1274l348 368h273l237 -368h-303l-92 166l-129 -166h-334zM455 530q0 -99 53 -157t143 -58 q113 0 185.5 87t72.5 206q0 100 -52 159.5t-146 59.5q-112 0 -184 -87.5t-72 -209.5z" />
<glyph unicode="&#xe3;" horiz-adv-x="1413" d="M63 483q0 148 46 278t124 221t183.5 143.5t220.5 52.5q110 0 196 -51t136 -144l59 164h352l-174 -1147h-336l-8 168q-150 -199 -370 -199q-186 0 -307.5 142t-121.5 372zM319 1286q14 171 105.5 259.5t226.5 88.5q52 0 100.5 -18t79 -39t71 -39t77.5 -18q52 0 82 31.5 t37 76.5h223q-17 -170 -109 -258t-227 -88q-51 0 -99 18t-79 39.5t-71 39.5t-77 18q-51 0 -81 -33t-37 -78h-222zM455 530q0 -99 53 -157t143 -58q113 0 185.5 87t72.5 206q0 100 -52 159.5t-146 59.5q-112 0 -184 -87.5t-72 -209.5z" />
<glyph unicode="&#xe4;" horiz-adv-x="1413" d="M63 483q0 148 46 278t124 221t183.5 143.5t220.5 52.5q110 0 196 -51t136 -144l59 164h352l-174 -1147h-336l-8 168q-150 -199 -370 -199q-186 0 -307.5 142t-121.5 372zM385 1458q0 71 51 121.5t123 50.5t123 -50.5t51 -121.5t-51 -121.5t-123 -50.5t-123 50.5 t-51 121.5zM455 530q0 -99 53 -157t143 -58q113 0 185.5 87t72.5 206q0 100 -52 159.5t-146 59.5q-112 0 -184 -87.5t-72 -209.5zM870 1458q0 71 51 121.5t123 50.5t123.5 -50.5t51.5 -121.5t-51.5 -121.5t-123.5 -50.5t-123 50.5t-51 121.5z" />
<glyph unicode="&#xe5;" horiz-adv-x="1413" d="M63 483q0 148 46 278t124 221t183.5 143.5t220.5 52.5q110 0 196 -51t136 -144l59 164h352l-174 -1147h-336l-8 168q-150 -199 -370 -199q-186 0 -307.5 142t-121.5 372zM455 530q0 -99 53 -157t143 -58q113 0 185.5 87t72.5 206q0 100 -52 159.5t-146 59.5 q-112 0 -184 -87.5t-72 -209.5zM551 1507q0 107 77.5 177.5t192.5 70.5q117 0 191.5 -70t74.5 -178q0 -104 -75 -174.5t-191 -70.5q-113 0 -191.5 71.5t-78.5 173.5zM715 1507q0 -44 32.5 -72t73.5 -28t73 28t32 72q0 48 -31.5 74.5t-73.5 26.5t-74 -26.5t-32 -74.5z" />
<glyph unicode="&#xe6;" horiz-adv-x="1925" d="M37 307q0 165 128.5 273t348.5 108q93 0 231 -31l5 21q16 78 -32.5 131t-162.5 53q-79 0 -179 -26t-173 -70l51 317q78 49 185 72t194 23q134 0 227 -49t141 -128q171 177 394 177q198 0 325 -133t127 -349q0 -41 -6.5 -85t-12 -66t-20.5 -76h-721q-2 -91 66.5 -145 t198.5 -54q182 0 387 92l-47 -305q-81 -41 -188.5 -64.5t-207.5 -23.5q-137 0 -251.5 48t-184.5 137q-176 -185 -426 -185q-179 0 -288 93.5t-109 244.5zM383 350q0 -39 29 -66.5t88 -27.5q74 0 138.5 51t74.5 125l2 21q-74 22 -140 22q-87 0 -139.5 -34.5t-52.5 -90.5z M1124 698h375q9 78 -28.5 127t-118.5 49q-78 0 -140.5 -48.5t-87.5 -127.5z" />
<glyph unicode="&#xe7;" horiz-adv-x="1071" d="M63 520q0 181 85.5 331.5t239 238.5t343.5 88q94 0 182 -20.5t148 -57.5l-51 -338q-42 30 -107.5 48.5t-126.5 18.5q-148 0 -232.5 -83.5t-84.5 -204.5q0 -103 69 -163.5t179 -60.5q138 0 260 70l-56 -354q-58 -31 -118 -43q-19 -214 -142 -371h-364q170 193 200 365 q-191 39 -307.5 182t-116.5 354z" />
<glyph unicode="&#xe8;" horiz-adv-x="1253" d="M63 492q0 145 51 272.5t138 218t207 143t254 52.5q220 0 351.5 -132.5t131.5 -357.5q0 -87 -39 -219h-741q-2 -91 73.5 -145t215.5 -54q90 0 194 25.5t191 66.5l-56 -309q-74 -41 -181 -62.5t-206 -21.5q-272 0 -428 142.5t-156 380.5zM379 1645l266 -371h283l-178 371 h-371zM455 698h393q12 78 -28.5 128.5t-127.5 50.5q-81 0 -146 -49.5t-91 -129.5z" />
<glyph unicode="&#xe9;" horiz-adv-x="1253" d="M63 492q0 145 51 272.5t138 218t207 143t254 52.5q220 0 351.5 -132.5t131.5 -357.5q0 -87 -39 -219h-741q-2 -91 73.5 -145t215.5 -54q90 0 194 25.5t191 66.5l-56 -309q-74 -41 -181 -62.5t-206 -21.5q-272 0 -428 142.5t-156 380.5zM455 698h393q12 78 -28.5 128.5 t-127.5 50.5q-81 0 -146 -49.5t-91 -129.5zM528 1274l279 371h373l-367 -371h-285z" />
<glyph unicode="&#xea;" horiz-adv-x="1253" d="M63 492q0 145 51 272.5t138 218t207 143t254 52.5q220 0 351.5 -132.5t131.5 -357.5q0 -87 -39 -219h-741q-2 -91 73.5 -145t215.5 -54q90 0 194 25.5t191 66.5l-56 -309q-74 -41 -181 -62.5t-206 -21.5q-272 0 -428 142.5t-156 380.5zM295 1278l348 367h272l238 -367 h-303l-92 164l-129 -164h-334zM455 698h393q12 78 -28.5 128.5t-127.5 50.5q-81 0 -146 -49.5t-91 -129.5z" />
<glyph unicode="&#xeb;" horiz-adv-x="1253" d="M63 492q0 145 51 272.5t138 218t207 143t254 52.5q220 0 351.5 -132.5t131.5 -357.5q0 -87 -39 -219h-741q-2 -91 73.5 -145t215.5 -54q90 0 194 25.5t191 66.5l-56 -309q-74 -41 -181 -62.5t-206 -21.5q-272 0 -428 142.5t-156 380.5zM326 1460q0 71 51 121.5t123 50.5 t123 -50.5t51 -121.5q0 -70 -51 -120t-123 -50t-123 50t-51 120zM455 698h393q12 78 -28.5 128.5t-127.5 50.5q-81 0 -146 -49.5t-91 -129.5zM811 1460q0 71 51 121.5t123 50.5t123 -50.5t51 -121.5q0 -70 -51 -120t-123 -50t-123 50t-51 120z" />
<glyph unicode="&#xec;" horiz-adv-x="630" d="M33 0l174 1147h391l-174 -1147h-391zM72 1645l268 -371h283l-181 371h-370z" />
<glyph unicode="&#xed;" horiz-adv-x="630" d="M33 0l174 1147h391l-174 -1147h-391zM221 1274l279 371h372l-366 -371h-285z" />
<glyph unicode="&#xee;" horiz-adv-x="630" d="M-12 1278l348 367h272l238 -367h-303l-92 164l-129 -164h-334zM33 0l174 1147h391l-174 -1147h-391z" />
<glyph unicode="&#xef;" horiz-adv-x="630" d="M18 1460q0 70 52 121t123 51q72 0 123 -50.5t51 -121.5q0 -70 -51 -120t-123 -50q-71 0 -123 50t-52 120zM33 0l174 1147h391l-174 -1147h-391zM504 1460q0 71 51 121.5t123 50.5t123 -50.5t51 -121.5q0 -70 -51 -120t-123 -50t-123 50t-51 120z" />
<glyph unicode="&#xf0;" horiz-adv-x="1363" d="M63 512q0 138 46.5 260t124.5 205.5t180 131.5t211 48q187 0 286 -117l7 2q-44 132 -164 304l-195 -72l-51 149l147 54q-82 107 -135 172h406l45 -58l180 66l51 -148l-139 -51q229 -367 229 -715q0 -176 -52 -322.5t-142.5 -245t-214.5 -152.5t-267 -54q-113 0 -214.5 40 t-176.5 110.5t-118.5 172.5t-43.5 220zM449 532q0 -99 52.5 -158t143.5 -59q112 0 186 87.5t74 205.5q0 98 -55.5 158.5t-144.5 60.5q-112 0 -184 -87.5t-72 -207.5z" />
<glyph unicode="&#xf1;" horiz-adv-x="1320" d="M33 0l174 1147h299l14 -156h4q155 187 369 187q177 0 275 -115t71 -305l-117 -758h-391l100 655q12 77 -21 124.5t-101 47.5q-77 0 -126 -49t-61 -129l-98 -649h-391zM279 1290q17 170 107.5 258t225.5 88q51 0 99 -18t79 -39t71.5 -39t78.5 -18q51 0 81.5 32.5 t37.5 77.5h221q-14 -171 -106 -258.5t-230 -87.5q-51 0 -98.5 18t-78.5 39.5t-71 39.5t-78 18q-51 0 -81 -33t-37 -78h-221z" />
<glyph unicode="&#xf2;" horiz-adv-x="1351" d="M63 508q0 136 51 260t139 214t211.5 143t262.5 53q243 0 402 -152.5t159 -390.5q0 -182 -87.5 -334.5t-242 -242t-342.5 -89.5q-152 0 -278 68t-200.5 192t-74.5 279zM395 1645l267 -371h282l-178 371h-371zM449 532q0 -99 54 -158t144 -59q111 0 184.5 87.5t73.5 205.5 q0 99 -55 159t-145 60q-112 0 -184 -89t-72 -206z" />
<glyph unicode="&#xf3;" horiz-adv-x="1351" d="M63 508q0 136 51 260t139 214t211.5 143t262.5 53q243 0 402 -152.5t159 -390.5q0 -182 -87.5 -334.5t-242 -242t-342.5 -89.5q-152 0 -278 68t-200.5 192t-74.5 279zM449 532q0 -99 54 -158t144 -59q111 0 184.5 87.5t73.5 205.5q0 99 -55 159t-145 60q-112 0 -184 -89 t-72 -206zM545 1274l278 371h373l-367 -371h-284z" />
<glyph unicode="&#xf4;" horiz-adv-x="1351" d="M63 508q0 136 51 260t139 214t211.5 143t262.5 53q243 0 402 -152.5t159 -390.5q0 -182 -87.5 -334.5t-242 -242t-342.5 -89.5q-152 0 -278 68t-200.5 192t-74.5 279zM311 1278l348 367h273l237 -367h-303l-92 164l-129 -164h-334zM449 532q0 -99 54 -158t144 -59 q111 0 184.5 87.5t73.5 205.5q0 99 -55 159t-145 60q-112 0 -184 -89t-72 -206z" />
<glyph unicode="&#xf5;" horiz-adv-x="1351" d="M63 508q0 136 51 260t139 214t211.5 143t262.5 53q243 0 402 -152.5t159 -390.5q0 -182 -87.5 -334.5t-242 -242t-342.5 -89.5q-152 0 -278 68t-200.5 192t-74.5 279zM276 1290q14 170 105 258t227 88q52 0 100.5 -18t79 -39t71 -39t77.5 -18q51 0 81.5 32.5t37.5 77.5 h223q-17 -171 -108.5 -258.5t-227.5 -87.5q-51 0 -99 18t-79 39.5t-71 39.5t-77 18q-53 0 -83 -33t-37 -78h-220zM449 532q0 -99 54 -158t144 -59q111 0 184.5 87.5t73.5 205.5q0 99 -55 159t-145 60q-112 0 -184 -89t-72 -206z" />
<glyph unicode="&#xf6;" horiz-adv-x="1351" d="M63 508q0 136 51 260t139 214t211.5 143t262.5 53q243 0 402 -152.5t159 -390.5q0 -182 -87.5 -334.5t-242 -242t-342.5 -89.5q-152 0 -278 68t-200.5 192t-74.5 279zM342 1460q0 71 51 121.5t123 50.5t123 -50.5t51 -121.5q0 -70 -51 -120t-123 -50t-123 50t-51 120z M449 532q0 -99 54 -158t144 -59q111 0 184.5 87.5t73.5 205.5q0 99 -55 159t-145 60q-112 0 -184 -89t-72 -206zM827 1460q0 71 51 121.5t123 50.5t123.5 -50.5t51.5 -121.5q0 -70 -51.5 -120t-123.5 -50t-123 50t-51 120z" />
<glyph unicode="&#xf7;" d="M123 608v312h1206v-312h-1206zM514 328q0 89 61.5 150t149.5 61t148.5 -61t60.5 -150q0 -88 -60.5 -148.5t-148.5 -60.5t-149.5 60.5t-61.5 148.5zM514 1200q0 88 61.5 148.5t149.5 60.5t148.5 -60.5t60.5 -148.5t-60.5 -149.5t-148.5 -61.5t-149.5 61.5t-61.5 149.5z " />
<glyph unicode="&#xf8;" horiz-adv-x="1351" d="M-25 121l150 133q-62 118 -62 254t51.5 260t139.5 214t212 143t263 53q191 0 332 -99l147 131l158 -182l-143 -127q65 -118 65 -266q0 -181 -88 -333.5t-243 -241.5t-343 -89q-187 0 -331 103l-148 -131zM412 535l2 -27l385 340q-39 20 -92 20q-125 0 -210 -102t-85 -231 zM543 303q47 -24 104 -24q124 0 208.5 100t84.5 229q0 17 -4 41z" />
<glyph unicode="&#xf9;" horiz-adv-x="1304" d="M98 514l97 633h391l-99 -651q-12 -85 25 -132t113 -47q143 0 172 179l96 651h393l-100 -666q-38 -240 -189 -376t-409 -136q-162 0 -283 71.5t-175.5 196t-31.5 277.5zM408 1645l268 -371h282l-180 371h-370z" />
<glyph unicode="&#xfa;" horiz-adv-x="1304" d="M98 514l97 633h391l-99 -651q-12 -85 25 -132t113 -47q143 0 172 179l96 651h393l-100 -666q-38 -240 -189 -376t-409 -136q-162 0 -283 71.5t-175.5 196t-31.5 277.5zM557 1274l279 371h372l-366 -371h-285z" />
<glyph unicode="&#xfb;" horiz-adv-x="1304" d="M98 514l97 633h391l-99 -651q-12 -85 25 -132t113 -47q143 0 172 179l96 651h393l-100 -666q-38 -240 -189 -376t-409 -136q-162 0 -283 71.5t-175.5 196t-31.5 277.5zM324 1278l348 367h272l238 -367h-303l-93 164l-129 -164h-333z" />
<glyph unicode="&#xfc;" horiz-adv-x="1304" d="M98 514l97 633h391l-99 -651q-12 -85 25 -132t113 -47q143 0 172 179l96 651h393l-100 -666q-38 -240 -189 -376t-409 -136q-162 0 -283 71.5t-175.5 196t-31.5 277.5zM354 1460q0 70 51.5 121t122.5 51q72 0 123 -50.5t51 -121.5q0 -70 -51 -120t-123 -50 q-71 0 -122.5 50t-51.5 120zM840 1460q0 71 51 121.5t123 50.5t123 -50.5t51 -121.5q0 -70 -51 -120t-123 -50t-123 50t-51 120z" />
<glyph unicode="&#xfd;" horiz-adv-x="1284" d="M88 -430l274 506l-272 1071h404l131 -680h8l319 680h420l-864 -1577h-420zM549 1274l278 371h373l-366 -371h-285z" />
<glyph unicode="&#xfe;" horiz-adv-x="1394" d="M-31 -430l312 2079h374l-98 -664q54 79 147 127.5t201 48.5q184 0 305 -138t121 -355q0 -156 -48.5 -288t-128.5 -217t-179 -132t-203 -47q-111 0 -200.5 51t-131.5 141l-92 -606h-379zM483 526q0 -102 55 -163.5t140 -61.5q109 0 187.5 96t78.5 228q0 96 -56.5 154.5 t-142.5 58.5q-106 0 -184 -91t-78 -221z" />
<glyph unicode="&#xff;" horiz-adv-x="1284" d="M88 -430l274 506l-272 1071h404l131 -680h8l319 680h420l-864 -1577h-420zM346 1460q0 70 51.5 121t122.5 51q72 0 123 -50.5t51 -121.5q0 -70 -51 -120t-123 -50q-71 0 -122.5 50t-51.5 120zM834 1460q0 71 50 121.5t122 50.5t123 -50.5t51 -121.5q0 -70 -51 -120 t-123 -50t-122 49.5t-50 120.5z" />
<glyph unicode="&#x152;" horiz-adv-x="2080" d="M82 678q0 180 68.5 344t185 283.5t281 190.5t348.5 71q85 0 214 -19.5t179 -19.5h753l-53 -361h-581l-37 -235h534l-47 -326h-536l-39 -246h592l-54 -360h-692q-20 0 -158.5 -18.5t-228.5 -18.5q-210 0 -376 89t-259.5 252.5t-93.5 373.5zM483 696q0 -170 99.5 -270 t253.5 -100q43 0 120 14l129 840q-67 24 -145 24q-128 0 -234.5 -73.5t-164.5 -189.5t-58 -245z" />
<glyph unicode="&#x153;" horiz-adv-x="2062" d="M57 506q0 183 87.5 337.5t238 244.5t328.5 90q250 0 395 -183q183 183 432 183q219 0 346 -130.5t127 -357.5q0 -80 -37 -221h-725q-3 -92 66.5 -145.5t204.5 -53.5q84 0 190.5 26.5t192.5 65.5l-48 -305q-80 -40 -188.5 -64t-204.5 -24q-284 0 -440 170 q-74 -73 -187 -120.5t-247 -47.5q-141 0 -262.5 68t-195 192t-73.5 275zM436 535q0 -99 57 -160.5t148 -61.5q113 0 187.5 88.5t74.5 206.5q0 103 -56 165.5t-147 62.5q-113 0 -188.5 -91t-75.5 -210zM1286 698h377q11 78 -27 128.5t-120 50.5q-78 0 -141.5 -49.5 t-88.5 -129.5z" />
<glyph unicode="&#x178;" horiz-adv-x="1525" d="M139 1528h434l240 -584l416 584h452l-714 -950l-88 -578h-400l92 596zM526 1843q0 71 51 121.5t121 50.5q72 0 124 -51t52 -121t-52 -121t-124 -51q-70 0 -121 50.5t-51 121.5zM1012 1843q0 71 51 121.5t123 50.5t123 -50.5t51 -121.5t-51 -121.5t-123 -50.5t-123 50.5 t-51 121.5z" />
<glyph unicode="&#x2c6;" horiz-adv-x="1040" d="M215 1278l346 367h275l237 -367h-305l-90 164l-131 -164h-332z" />
<glyph unicode="&#x2dc;" horiz-adv-x="1042" d="M23 1290q14 170 105 258t226 88q52 0 100 -18t78.5 -39t71 -39t78.5 -18q51 0 81.5 32.5t37.5 77.5h223q-17 -171 -109 -258.5t-229 -87.5q-50 0 -97.5 18t-78.5 39.5t-71.5 39.5t-78.5 18q-51 0 -81 -33t-37 -78h-219z" />
<glyph unicode="&#x2000;" horiz-adv-x="1070" />
<glyph unicode="&#x2001;" horiz-adv-x="2140" />
<glyph unicode="&#x2002;" horiz-adv-x="1070" />
<glyph unicode="&#x2003;" horiz-adv-x="2140" />
<glyph unicode="&#x2004;" horiz-adv-x="713" />
<glyph unicode="&#x2005;" horiz-adv-x="535" />
<glyph unicode="&#x2006;" horiz-adv-x="356" />
<glyph unicode="&#x2007;" horiz-adv-x="356" />
<glyph unicode="&#x2008;" horiz-adv-x="267" />
<glyph unicode="&#x2009;" horiz-adv-x="428" />
<glyph unicode="&#x200a;" horiz-adv-x="118" />
<glyph unicode="&#x2010;" horiz-adv-x="817" d="M88 506l41 291h629l-43 -291h-627z" />
<glyph unicode="&#x2011;" horiz-adv-x="817" d="M88 506l41 291h629l-43 -291h-627z" />
<glyph unicode="&#x2012;" horiz-adv-x="817" d="M88 506l41 291h629l-43 -291h-627z" />
<glyph unicode="&#x2013;" horiz-adv-x="995" d="M84 506l43 291h782l-43 -291h-782z" />
<glyph unicode="&#x2014;" horiz-adv-x="1599" d="M84 506l43 291h1384l-43 -291h-1384z" />
<glyph unicode="&#x2018;" horiz-adv-x="604" d="M145 874l11 89q35 242 237 565h277q-73 -166 -109 -283.5t-55 -249.5l-19 -121h-342z" />
<glyph unicode="&#x2019;" horiz-adv-x="604" d="M111 874q72 165 108 282.5t55 250.5l19 121h342l-10 -88q-35 -241 -238 -566h-276z" />
<glyph unicode="&#x201a;" horiz-adv-x="604" d="M115 -274q71 165 106.5 283t54.5 249l19 123h342l-10 -90q-34 -237 -236 -565h-276z" />
<glyph unicode="&#x201c;" horiz-adv-x="1122" d="M143 874l13 89q32 241 235 565h277q-73 -166 -109 -283.5t-55 -249.5l-17 -121h-344zM662 874l12 89q32 241 235 565h277q-73 -166 -109 -283.5t-55 -249.5l-16 -121h-344z" />
<glyph unicode="&#x201d;" horiz-adv-x="1122" d="M115 874q71 166 106.5 283.5t54.5 249.5l19 121h342l-10 -88q-34 -238 -236 -566h-276zM631 874q73 166 109 283.5t55 249.5l18 121h342l-10 -88q-34 -238 -236 -566h-278z" />
<glyph unicode="&#x201e;" horiz-adv-x="1122" d="M117 -274q92 154 132.5 266t43.5 235q0 73 -14 152h342q4 -36 4 -60q-3 -148 -70.5 -289t-202.5 -304h-235zM651 -274q91 155 131 267t43 234q3 76 -14 152h344q2 -18 2 -60q-1 -147 -68 -288t-202 -305h-236z" />
<glyph unicode="&#x2022;" horiz-adv-x="819" d="M133 760q0 115 80.5 195.5t196.5 80.5t196 -80t80 -196t-80.5 -196.5t-195.5 -80.5q-116 0 -196.5 80.5t-80.5 196.5z" />
<glyph unicode="&#x2026;" horiz-adv-x="2136" d="M68 195q0 88 61.5 149.5t149.5 61.5q87 0 147.5 -61.5t60.5 -149.5t-60 -148.5t-148 -60.5t-149.5 60.5t-61.5 148.5zM801 195q0 88 60.5 149.5t148.5 61.5t149.5 -61.5t61.5 -149.5t-61.5 -148.5t-149.5 -60.5t-148.5 60.5t-60.5 148.5zM1532 195q0 88 61.5 149.5 t149.5 61.5t149.5 -61.5t61.5 -149.5t-61.5 -148.5t-149.5 -60.5t-149.5 60.5t-61.5 148.5z" />
<glyph unicode="&#x202f;" horiz-adv-x="428" />
<glyph unicode="&#x2039;" horiz-adv-x="925" d="M104 483l35 215l699 469l-56 -368l-346 -228l277 -237l-54 -352z" />
<glyph unicode="&#x203a;" horiz-adv-x="925" d="M72 -18l55 370l346 226l-276 237l53 352l555 -501l-35 -215z" />
<glyph unicode="&#x205f;" horiz-adv-x="535" />
<glyph unicode="&#x20ac;" horiz-adv-x="1437" d="M90 512l33 213h153q3 35 9 74h-152l33 213h174q102 257 326 406t479 149q159 0 295 -51l-51 -349q-96 45 -203 45q-137 0 -244 -52t-174 -148h420l-33 -213h-469q-4 -26 -8 -74h467l-33 -213h-397q87 -182 338 -182q115 0 213 39l-56 -371q-100 -35 -233 -35 q-175 0 -323 74.5t-241 198t-124 276.5h-199z" />
<glyph unicode="&#x2122;" horiz-adv-x="2004" d="M115 1251l41 277h731l-41 -277h-230l-88 -602h-274l88 602h-227zM774 647l260 881h297l82 -451h2l211 451h305v-881h-274l22 486h-6l-221 -486h-201l-69 486h-6l-129 -486h-273z" />
<glyph unicode="&#x25fc;" horiz-adv-x="1146" d="M0 0v1147h1147v-1147h-1147z" />
<glyph unicode="&#xfb02;" horiz-adv-x="1595" d="M90 825l47 322h162l14 86q15 92 52 168t98.5 137.5t156 96t214.5 34.5q116 0 233 -31l-49 -317q-82 14 -129 14q-171 0 -189 -129l-10 -59h264l-49 -322h-264l-125 -825h-391l125 825h-160zM997 0l250 1649h391l-249 -1649h-392z" />
</font>
</defs>
</svg>
